<?xml version="1.0" encoding="utf-8"?>
<!-- Generator: Adobe Illustrator 27.0.1, SVG Export Plug-In . SVG Version: 6.00 Build 0)  -->
<svg version="1.1" id="Layer_1" xmlns="http://www.w3.org/2000/svg" xmlns:xlink="http://www.w3.org/1999/xlink" x="0px" y="0px"
	 viewBox="0 0 425.2 425.2" style="enable-background:new 0 0 425.2 425.2;" xml:space="preserve">
<style type="text/css">
	.st0{fill:#FFFFFF;}
	.st1{fill-rule:evenodd;clip-rule:evenodd;fill:#FFFFFF;}
</style>
<g>
	<g>
		<g>
			<path class="st0" d="M123.7,300.94c-1.57-0.83-2.8-1.98-3.69-3.46c-0.89-1.47-1.34-3.13-1.34-4.97c0-1.84,0.45-3.5,1.34-4.97
				c0.89-1.47,2.13-2.62,3.69-3.46c1.57-0.83,3.34-1.25,5.3-1.25c1.97,0,3.73,0.42,5.3,1.25c1.57,0.83,2.8,1.98,3.69,3.46
				c0.89,1.47,1.34,3.13,1.34,4.97c0,1.84-0.45,3.5-1.34,4.97c-0.89,1.47-2.13,2.62-3.69,3.46c-1.57,0.83-3.34,1.25-5.3,1.25
				C127.04,302.19,125.27,301.78,123.7,300.94z M131.56,297.17c0.76-0.44,1.36-1.07,1.81-1.87c0.44-0.81,0.66-1.73,0.66-2.78
				c0-1.05-0.22-1.97-0.66-2.78c-0.44-0.81-1.05-1.43-1.81-1.87c-0.76-0.44-1.61-0.66-2.55-0.66c-0.94,0-1.79,0.22-2.55,0.66
				c-0.76,0.44-1.36,1.07-1.81,1.87c-0.44,0.81-0.66,1.73-0.66,2.78c0,1.05,0.22,1.97,0.66,2.78c0.44,0.81,1.05,1.43,1.81,1.87
				c0.76,0.44,1.61,0.66,2.55,0.66C129.94,297.83,130.79,297.61,131.56,297.17z"/>
			<path class="st0" d="M143.01,301.65c-1.17-0.27-2.11-0.63-2.82-1.08l1.52-3.46c0.66,0.41,1.44,0.73,2.34,0.97
				c0.9,0.24,1.8,0.36,2.68,0.36c0.81,0,1.4-0.08,1.74-0.25c0.35-0.17,0.52-0.41,0.52-0.73c0-0.32-0.21-0.54-0.62-0.68
				c-0.42-0.13-1.08-0.26-1.98-0.39c-1.15-0.14-2.13-0.33-2.94-0.56c-0.81-0.23-1.5-0.66-2.09-1.28c-0.58-0.62-0.88-1.49-0.88-2.6
				c0-0.92,0.27-1.74,0.82-2.46c0.55-0.72,1.35-1.28,2.41-1.7c1.05-0.42,2.32-0.62,3.79-0.62c1.05,0,2.08,0.11,3.11,0.32
				c1.03,0.21,1.89,0.51,2.58,0.9l-1.52,3.43c-1.28-0.71-2.66-1.06-4.15-1.06c-0.8,0-1.38,0.09-1.75,0.28
				c-0.37,0.19-0.56,0.43-0.56,0.73c0,0.34,0.2,0.57,0.61,0.7c0.41,0.13,1.08,0.27,2.02,0.41c1.19,0.18,2.17,0.38,2.95,0.61
				c0.78,0.23,1.46,0.65,2.03,1.26c0.58,0.61,0.86,1.47,0.86,2.56c0,0.9-0.28,1.71-0.82,2.43c-0.55,0.72-1.36,1.28-2.43,1.69
				c-1.07,0.41-2.36,0.61-3.87,0.61C145.37,302.06,144.18,301.92,143.01,301.65z"/>
			<path class="st0" d="M178.95,287.42l-5.13,14.41h-4.89l-2.71-7.84l-2.82,7.84h-4.89l-5.13-14.41h4.78l2.95,8.72l3.06-8.72h4.31
				l2.98,8.8l3.06-8.8H178.95z"/>
			<path class="st0" d="M191.07,288.81c1.26,1.09,1.89,2.76,1.89,5.01v8h-4.7v-1.86c-0.73,1.4-2.14,2.1-4.25,2.1
				c-1.12,0-2.08-0.2-2.9-0.58c-0.82-0.39-1.43-0.92-1.85-1.58c-0.42-0.66-0.62-1.42-0.62-2.27c0-1.36,0.52-2.42,1.57-3.18
				c1.05-0.75,2.66-1.13,4.84-1.13h2.87c-0.09-1.52-1.11-2.29-3.06-2.29c-0.69,0-1.39,0.11-2.1,0.33c-0.71,0.22-1.31,0.53-1.81,0.92
				l-1.7-3.43c0.8-0.53,1.77-0.94,2.91-1.24c1.14-0.29,2.29-0.44,3.44-0.44C187.99,287.18,189.81,287.72,191.07,288.81z
				 M186.95,298.45c0.44-0.28,0.76-0.7,0.96-1.25v-1.25h-2.18c-1.47,0-2.21,0.49-2.21,1.46c0,0.44,0.17,0.8,0.51,1.06
				c0.34,0.27,0.8,0.4,1.38,0.4C185.99,298.87,186.51,298.73,186.95,298.45z"/>
			<path class="st0" d="M195.61,282.1h5.05v19.72h-5.05V282.1z"/>
			<path class="st0" d="M218.71,282.1v19.72h-4.81v-1.44c-0.94,1.12-2.35,1.67-4.23,1.67c-1.31,0-2.51-0.31-3.59-0.92
				c-1.08-0.61-1.94-1.48-2.56-2.62c-0.63-1.13-0.94-2.45-0.94-3.93s0.31-2.8,0.94-3.92c0.63-1.13,1.48-1.99,2.56-2.59
				c1.08-0.6,2.28-0.9,3.59-0.9c1.72,0,3.05,0.5,3.99,1.49v-6.57H218.71z M212.89,297.13c0.57-0.61,0.85-1.46,0.85-2.54
				c0-1.06-0.28-1.9-0.84-2.5c-0.56-0.6-1.28-0.9-2.17-0.9c-0.89,0-1.61,0.3-2.18,0.9c-0.57,0.6-0.85,1.44-0.85,2.5
				c0,1.08,0.28,1.93,0.85,2.54c0.57,0.61,1.29,0.92,2.18,0.92C211.61,298.05,212.32,297.74,212.89,297.13z"/>
			<path class="st0" d="M224.48,301.1c-1.24-0.64-2.21-1.52-2.91-2.66c-0.7-1.13-1.05-2.42-1.05-3.85c0-1.42,0.35-2.69,1.05-3.83
				c0.7-1.13,1.67-2.02,2.9-2.64c1.23-0.63,2.63-0.94,4.19-0.94c1.56,0,2.96,0.31,4.2,0.94c1.24,0.63,2.21,1.51,2.9,2.63
				c0.69,1.13,1.04,2.41,1.04,3.84s-0.35,2.72-1.04,3.85c-0.69,1.13-1.66,2.02-2.9,2.66c-1.24,0.64-2.64,0.96-4.2,0.96
				C227.11,302.06,225.72,301.74,224.48,301.1z M230.83,297.13c0.57-0.61,0.85-1.46,0.85-2.54c0-1.06-0.28-1.9-0.85-2.5
				c-0.57-0.6-1.29-0.9-2.18-0.9c-0.89,0-1.61,0.3-2.18,0.9c-0.57,0.6-0.85,1.44-0.85,2.5c0,1.08,0.28,1.93,0.85,2.54
				c0.57,0.61,1.29,0.92,2.18,0.92C229.54,298.05,230.27,297.74,230.83,297.13z"/>
			<path class="st0" d="M250.06,300.96c-1.55-0.82-2.77-1.97-3.65-3.44c-0.89-1.47-1.33-3.14-1.33-5c0-1.86,0.44-3.53,1.33-5
				c0.89-1.47,2.1-2.62,3.65-3.44c1.55-0.82,3.3-1.24,5.25-1.24c1.7,0,3.23,0.3,4.6,0.9c1.36,0.6,2.5,1.47,3.4,2.6l-3.35,3.03
				c-1.21-1.45-2.67-2.18-4.39-2.18c-1.01,0-1.91,0.22-2.7,0.66c-0.79,0.44-1.4,1.07-1.83,1.87c-0.43,0.81-0.65,1.73-0.65,2.78
				c0,1.05,0.22,1.97,0.65,2.78c0.43,0.81,1.05,1.43,1.83,1.87c0.79,0.44,1.69,0.66,2.7,0.66c1.72,0,3.18-0.73,4.39-2.18l3.35,3.03
				c-0.9,1.13-2.04,2-3.4,2.6c-1.36,0.6-2.9,0.9-4.6,0.9C253.36,302.19,251.61,301.78,250.06,300.96z"/>
			<path class="st0" d="M271.7,287.67c0.82-0.33,1.77-0.49,2.83-0.49v4.55c-0.46-0.05-0.84-0.08-1.14-0.08
				c-1.08,0-1.93,0.29-2.54,0.88s-0.92,1.48-0.92,2.68v6.62h-5.05v-14.41h4.81v1.73C270.21,288.49,270.87,288,271.7,287.67z"/>
			<path class="st0" d="M291.28,287.42v14.41h-4.81v-1.54c-0.53,0.58-1.17,1.03-1.91,1.33c-0.74,0.3-1.53,0.45-2.37,0.45
				c-1.86,0-3.34-0.55-4.45-1.65c-1.11-1.1-1.66-2.75-1.66-4.94v-8.05h5.05v7.23c0,1.08,0.2,1.87,0.61,2.37
				c0.41,0.5,1,0.74,1.78,0.74c0.8,0,1.45-0.28,1.95-0.84c0.51-0.56,0.76-1.41,0.76-2.56v-6.94H291.28z"/>
			<path class="st0" d="M306.53,298.05v3.77h-13.29v-2.98l6.67-7.68h-6.49v-3.75h12.84v2.95l-6.67,7.68H306.53z"/>
		</g>
		<g>
			<path class="st0" d="M177,279h-1.41v-9.9h6.99v1.23H177V279z M176.86,273.78h5.11v1.22h-5.11V273.78z"/>
			<path class="st0" d="M185.59,279.08c-0.56,0-1.04-0.09-1.46-0.28c-0.42-0.19-0.74-0.45-0.97-0.79c-0.23-0.33-0.34-0.71-0.34-1.14
				c0-0.41,0.1-0.77,0.29-1.1c0.19-0.33,0.51-0.59,0.95-0.79c0.44-0.2,1.03-0.3,1.78-0.3h2.38v0.98h-2.32
				c-0.68,0-1.14,0.11-1.37,0.34c-0.24,0.23-0.35,0.5-0.35,0.82c0,0.37,0.15,0.66,0.44,0.88c0.29,0.22,0.7,0.33,1.22,0.33
				c0.51,0,0.95-0.11,1.34-0.34c0.38-0.23,0.66-0.56,0.83-0.99l0.27,0.93c-0.18,0.44-0.5,0.79-0.95,1.05
				C186.85,278.95,186.28,279.08,185.59,279.08z M188.05,279v-1.58l-0.07-0.3v-2.7c0-0.58-0.17-1.02-0.5-1.34
				c-0.33-0.32-0.84-0.47-1.51-0.47c-0.44,0-0.88,0.07-1.3,0.22c-0.42,0.15-0.78,0.34-1.08,0.59l-0.57-1.02
				c0.39-0.31,0.85-0.55,1.39-0.71c0.54-0.16,1.11-0.25,1.71-0.25c1.03,0,1.82,0.25,2.38,0.75c0.56,0.5,0.83,1.26,0.83,2.29V279
				H188.05z"/>
			<path class="st0" d="M194.42,279.08c-0.76,0-1.45-0.16-2.04-0.5c-0.6-0.33-1.07-0.78-1.41-1.36c-0.34-0.58-0.51-1.24-0.51-1.98
				c0-0.74,0.17-1.41,0.51-1.98c0.34-0.58,0.81-1.03,1.41-1.35c0.6-0.33,1.28-0.49,2.04-0.49c0.68,0,1.29,0.13,1.82,0.4
				c0.53,0.27,0.95,0.67,1.24,1.2l-1.03,0.67c-0.25-0.37-0.54-0.64-0.9-0.81c-0.35-0.17-0.73-0.26-1.14-0.26
				c-0.49,0-0.93,0.11-1.32,0.33c-0.39,0.22-0.69,0.52-0.92,0.91c-0.23,0.39-0.34,0.86-0.34,1.39s0.11,1,0.34,1.4
				c0.23,0.4,0.53,0.7,0.92,0.92c0.39,0.22,0.83,0.33,1.32,0.33c0.41,0,0.79-0.09,1.14-0.26c0.35-0.17,0.65-0.45,0.9-0.81l1.03,0.65
				c-0.29,0.52-0.71,0.92-1.24,1.2C195.7,278.94,195.1,279.08,194.42,279.08z"/>
			<path class="st0" d="M201.68,279.08c-0.64,0-1.21-0.12-1.69-0.35c-0.49-0.24-0.86-0.6-1.13-1.08c-0.27-0.49-0.4-1.1-0.4-1.83
				v-4.32h1.36v4.16c0,0.74,0.18,1.29,0.53,1.66c0.35,0.37,0.85,0.55,1.49,0.55c0.47,0,0.88-0.1,1.23-0.29
				c0.35-0.19,0.62-0.48,0.81-0.85c0.19-0.37,0.28-0.82,0.28-1.35v-3.88h1.36v7.5h-1.29v-2.02l0.21,0.54
				c-0.25,0.5-0.61,0.89-1.1,1.16C202.84,278.95,202.29,279.08,201.68,279.08z"/>
			<path class="st0" d="M207.39,279v-10.5h1.36V279H207.39z"/>
			<path class="st0" d="M213.73,279.08c-0.73,0-1.37-0.16-1.95-0.48c-0.57-0.32-1.02-0.77-1.35-1.34c-0.33-0.58-0.5-1.25-0.5-2.01
				c0-0.76,0.16-1.43,0.5-2c0.33-0.57,0.78-1.02,1.35-1.34c0.57-0.32,1.22-0.48,1.95-0.48c0.63,0,1.2,0.14,1.71,0.42
				c0.51,0.28,0.92,0.71,1.22,1.27c0.31,0.57,0.46,1.27,0.46,2.12c0,0.85-0.15,1.56-0.45,2.12c-0.3,0.57-0.7,0.99-1.21,1.28
				C214.96,278.94,214.38,279.08,213.73,279.08z M213.84,277.89c0.47,0,0.9-0.11,1.28-0.33c0.38-0.22,0.68-0.53,0.91-0.93
				c0.22-0.4,0.33-0.87,0.33-1.39c0-0.54-0.11-1-0.33-1.39c-0.22-0.39-0.52-0.7-0.91-0.91c-0.38-0.22-0.81-0.33-1.28-0.33
				c-0.48,0-0.91,0.11-1.29,0.33c-0.38,0.22-0.68,0.52-0.91,0.91c-0.23,0.39-0.34,0.86-0.34,1.39c0,0.53,0.11,0.99,0.34,1.39
				c0.23,0.4,0.53,0.71,0.91,0.93C212.93,277.79,213.36,277.89,213.84,277.89z M216.4,279v-2.02l0.08-1.74l-0.14-1.74v-4.99h1.36
				V279H216.4z"/>
			<path class="st0" d="M221.77,279.08c-0.56,0-1.04-0.09-1.46-0.28c-0.42-0.19-0.74-0.45-0.97-0.79c-0.23-0.33-0.34-0.71-0.34-1.14
				c0-0.41,0.1-0.77,0.29-1.1c0.19-0.33,0.51-0.59,0.95-0.79c0.44-0.2,1.03-0.3,1.78-0.3h2.38v0.98h-2.32
				c-0.68,0-1.14,0.11-1.37,0.34c-0.24,0.23-0.35,0.5-0.35,0.82c0,0.37,0.15,0.66,0.44,0.88c0.29,0.22,0.7,0.33,1.22,0.33
				c0.51,0,0.95-0.11,1.34-0.34c0.38-0.23,0.66-0.56,0.83-0.99l0.27,0.93c-0.18,0.44-0.5,0.79-0.95,1.05
				C223.03,278.95,222.46,279.08,221.77,279.08z M224.23,279v-1.58l-0.07-0.3v-2.7c0-0.58-0.17-1.02-0.5-1.34
				c-0.33-0.32-0.84-0.47-1.51-0.47c-0.44,0-0.88,0.07-1.3,0.22c-0.42,0.15-0.78,0.34-1.08,0.59l-0.57-1.02
				c0.39-0.31,0.85-0.55,1.39-0.71c0.54-0.16,1.11-0.25,1.71-0.25c1.03,0,1.82,0.25,2.38,0.75c0.56,0.5,0.83,1.26,0.83,2.29V279
				H224.23z"/>
			<path class="st0" d="M230.43,279.08c-0.73,0-1.37-0.16-1.95-0.48c-0.57-0.32-1.02-0.77-1.35-1.34c-0.33-0.58-0.5-1.25-0.5-2.01
				c0-0.76,0.16-1.43,0.5-2c0.33-0.57,0.78-1.02,1.35-1.34c0.57-0.32,1.22-0.48,1.95-0.48c0.63,0,1.2,0.14,1.71,0.42
				c0.51,0.28,0.92,0.71,1.22,1.27c0.31,0.57,0.46,1.27,0.46,2.12c0,0.85-0.15,1.56-0.45,2.12c-0.3,0.57-0.7,0.99-1.21,1.28
				C231.66,278.94,231.08,279.08,230.43,279.08z M230.54,277.89c0.47,0,0.9-0.11,1.28-0.33c0.38-0.22,0.68-0.53,0.91-0.93
				c0.22-0.4,0.33-0.87,0.33-1.39c0-0.54-0.11-1-0.33-1.39c-0.22-0.39-0.52-0.7-0.91-0.91c-0.38-0.22-0.81-0.33-1.28-0.33
				c-0.48,0-0.91,0.11-1.29,0.33c-0.38,0.22-0.68,0.52-0.91,0.91c-0.23,0.39-0.34,0.86-0.34,1.39c0,0.53,0.11,0.99,0.34,1.39
				c0.23,0.4,0.53,0.71,0.91,0.93C229.63,277.79,230.06,277.89,230.54,277.89z M233.1,279v-2.02l0.08-1.74l-0.14-1.74v-4.99h1.36
				V279H233.1z"/>
			<path class="st0" d="M239.61,279.08c-0.8,0-1.51-0.16-2.12-0.5c-0.61-0.33-1.08-0.78-1.41-1.36c-0.33-0.58-0.5-1.24-0.5-1.98
				c0-0.74,0.16-1.41,0.49-1.98c0.33-0.58,0.77-1.03,1.34-1.35c0.57-0.33,1.21-0.49,1.93-0.49c0.73,0,1.37,0.16,1.92,0.48
				c0.56,0.32,0.99,0.77,1.31,1.35c0.32,0.58,0.47,1.26,0.47,2.03c0,0.06,0,0.12-0.01,0.2c0,0.08-0.01,0.15-0.02,0.21h-6.38v-0.98
				h5.67l-0.55,0.34c0.01-0.48-0.09-0.91-0.3-1.29c-0.21-0.38-0.49-0.67-0.86-0.88s-0.79-0.32-1.27-0.32
				c-0.47,0-0.89,0.11-1.26,0.32c-0.37,0.21-0.66,0.51-0.86,0.89c-0.21,0.38-0.31,0.82-0.31,1.31v0.23c0,0.5,0.12,0.95,0.35,1.34
				c0.23,0.39,0.55,0.7,0.97,0.91c0.42,0.22,0.89,0.33,1.43,0.33c0.44,0,0.85-0.08,1.21-0.23c0.36-0.15,0.68-0.38,0.96-0.68
				l0.75,0.88c-0.34,0.4-0.76,0.7-1.27,0.91C240.8,278.98,240.23,279.08,239.61,279.08z"/>
			<path class="st0" d="M246.37,279.08c-0.62,0-1.21-0.08-1.78-0.25c-0.56-0.17-1-0.38-1.32-0.62l0.57-1.08
				c0.32,0.22,0.72,0.4,1.19,0.55c0.47,0.15,0.95,0.23,1.44,0.23c0.63,0,1.09-0.09,1.37-0.27c0.28-0.18,0.42-0.43,0.42-0.75
				c0-0.24-0.09-0.42-0.25-0.55c-0.17-0.13-0.39-0.23-0.67-0.3c-0.28-0.07-0.59-0.12-0.93-0.18c-0.34-0.05-0.68-0.12-1.02-0.2
				c-0.34-0.08-0.65-0.19-0.93-0.34c-0.28-0.15-0.51-0.35-0.68-0.61c-0.17-0.26-0.25-0.61-0.25-1.04c0-0.45,0.13-0.85,0.38-1.19
				c0.25-0.34,0.62-0.6,1.08-0.79c0.47-0.18,1.02-0.28,1.66-0.28c0.49,0,0.99,0.06,1.49,0.18c0.5,0.12,0.92,0.29,1.24,0.5
				l-0.58,1.08c-0.34-0.23-0.69-0.38-1.06-0.47c-0.37-0.08-0.74-0.13-1.1-0.13c-0.59,0-1.04,0.1-1.33,0.29
				c-0.29,0.19-0.44,0.44-0.44,0.74c0,0.25,0.09,0.45,0.26,0.59c0.17,0.14,0.4,0.24,0.68,0.32c0.28,0.08,0.59,0.14,0.93,0.19
				c0.34,0.05,0.68,0.12,1.02,0.2c0.34,0.08,0.65,0.19,0.93,0.33c0.28,0.14,0.5,0.34,0.68,0.59c0.17,0.25,0.26,0.59,0.26,1.02
				c0,0.45-0.13,0.84-0.4,1.17c-0.26,0.33-0.64,0.59-1.12,0.77C247.62,278.99,247.04,279.08,246.37,279.08z"/>
		</g>
	</g>
	<g>
		<path class="st0" d="M214.87,233.33c-0.76,0-1.51-0.28-2.07-0.83c-2.45-2.44-4.89-4.89-7.34-7.34c-1.04-1.04-1.15-2.85-0.25-4.04
			c0.72-0.95,1.57-1.77,2.38-2.55c0.41-0.4,0.84-0.81,1.23-1.22c0.32-0.33,0.49-0.74,0.47-1.14c-0.01-0.35-0.17-0.68-0.46-0.94
			c-1.46-1.33-3.13-2.49-4.74-3.61l-0.02-0.02c-1.36-0.94-1.96-2.1-1.89-3.64c0.04-0.91,0.04-1.84,0.03-2.75
			c-0.01-0.63-0.01-1.28,0-1.92c-0.59-0.29-1.18-0.59-1.76-0.87c-0.42-0.21-0.83-0.42-1.25-0.63c-1.43-0.71-1.77-1.78-1.78-2.6
			l-0.06-0.2l0-2.54l-1.08-0.37c-1.24-0.43-2.48-0.85-3.73-1.27c-1.61-0.54-2.4-1.62-2.4-3.31c0-0.25,0-0.5-0.01-0.75
			c0-0.39-0.01-0.79,0-1.2c-1.48,0.75-2.98,1.5-4.43,2.22l-0.4,0.2c-1.68,0.83-2.8,0.65-4.14-0.7l-1.69-1.69
			c-1.52-1.52-3.1-3.1-4.65-4.64c-0.58-0.57-1.02-1.16-1.34-1.78l-0.1-0.19v-1.79l0.11-0.2c0.59-1.05,1.41-1.85,2.2-2.62l0.03-0.03
			c0.39-0.38,0.77-0.76,1.15-1.14l3.65-3.66l0.04-4.55c0-0.11,0-0.22,0-0.33c0-0.56-0.01-1.19,0.21-1.84
			c0.8-2.39,2.28-3.85,4.41-4.35c1.82-0.42,3.49-0.2,4.95,0.65c0.54,0.32,1.06,0.2,1.32,0.1c0.47-0.18,0.86-0.56,1.01-1.01
			c0.09-0.27,0.08-0.59,0.06-0.95c-0.01-0.18-0.01-0.36-0.01-0.53c0.02-1.3,0.57-2.31,1.6-2.94c0.43-0.26,0.89-0.4,1.3-0.53
			c0.14-0.04,0.28-0.08,0.41-0.13l0.58,1.67c-0.16,0.05-0.31,0.1-0.47,0.15c-0.34,0.1-0.66,0.2-0.9,0.35
			c-0.31,0.19-0.73,0.55-0.75,1.45c0,0.14,0,0.29,0.01,0.43c0.02,0.47,0.04,1.01-0.16,1.6c-0.32,0.95-1.09,1.73-2.07,2.1
			c-0.94,0.35-1.97,0.27-2.83-0.23c-1.07-0.63-2.27-0.77-3.66-0.45c-1.53,0.35-2.52,1.36-3.13,3.18c-0.12,0.37-0.12,0.78-0.12,1.27
			c0,0.12,0,0.24,0,0.36l-0.05,5.27l-4.16,4.17c-0.39,0.39-0.77,0.78-1.17,1.16l-0.03,0.03c-0.68,0.66-1.32,1.28-1.78,2.03v0.88
			c0.23,0.39,0.52,0.77,0.91,1.15c1.56,1.54,3.14,3.12,4.66,4.65l1.69,1.69c0.8,0.8,1.12,0.86,2.11,0.36l0.4-0.2
			c1.65-0.82,3.36-1.67,5.02-2.52c0.26-0.13,0.88-0.45,1.46-0.08c0.58,0.37,0.54,1.1,0.53,1.33c-0.03,0.59-0.02,1.18-0.02,1.81
			c0,0.25,0.01,0.51,0.01,0.76c0,0.92,0.3,1.34,1.2,1.63c1.25,0.42,2.49,0.85,3.74,1.27l1.48,0.51c0.49,0.06,0.7,0.4,0.75,0.52
			c0.05,0.1,0.17,0.39,0.04,0.74l0,2.57l0.06,0.22l0,0.14c-0.01,0.42,0.11,0.78,0.79,1.11c0.42,0.21,0.84,0.42,1.26,0.63
			c0.57,0.29,1.16,0.59,1.74,0.87c0.67,0.32,1,0.86,0.98,1.61c-0.01,0.62-0.01,1.26,0,1.88c0.01,0.93,0.02,1.89-0.03,2.85
			c-0.04,0.92,0.27,1.51,1.13,2.11l0.02,0.02c1.66,1.15,3.38,2.35,4.92,3.75c0.64,0.58,1,1.36,1.03,2.18
			c0.03,0.88-0.31,1.74-0.96,2.42c-0.42,0.44-0.86,0.87-1.29,1.28c-0.8,0.77-1.56,1.51-2.2,2.35c-0.36,0.48-0.32,1.31,0.09,1.72
			c2.44,2.45,4.89,4.89,7.33,7.34c0.48,0.47,1.35,0.41,1.92-0.14c2.11-2.07,4.24-4.21,6.29-6.28l0.78-0.78
			c0.33-0.33,0.49-0.76,0.49-1.31c0-0.56,0.01-1.12,0.02-1.68c0-0.19,0.01-0.39,0.01-0.58l-0.07-0.22l0.01-0.17
			c0.36-4.32,3.67-7.55,7.86-7.68c0.64-0.02,1.17-0.25,1.62-0.69c2.91-2.93,5.89-5.9,8.76-8.77l0.33-0.33
			c0.47-0.46,0.68-0.99,0.68-1.67c0-1,0-2,0-3.01c0-1.54,0-3.12-0.01-4.69c-0.01-0.71,0.22-1.26,0.71-1.74
			c0.9-0.88,1.81-1.79,2.69-2.67c0.71-0.71,1.41-1.42,2.13-2.12c1.11-1.1,1.67-2.45,1.65-4.03c-0.03-2.39-1.44-4.53-3.6-5.44
			c-1.65-0.69-3.28-1.46-4.87-2.2c-0.87-0.41-1.77-0.83-2.66-1.23c-1.46-0.66-2.75-1.26-3.97-1.82c-2.65-1.22-4.95-2.28-8.12-3.64
			l0.7-1.62c3.19,1.37,5.5,2.43,8.16,3.66c1.22,0.56,2.5,1.15,3.96,1.81c0.9,0.41,1.81,0.83,2.68,1.24c1.57,0.73,3.19,1.49,4.8,2.17
			c2.81,1.18,4.65,3.95,4.69,7.05c0.02,2.07-0.71,3.86-2.17,5.3c-0.71,0.7-1.41,1.41-2.11,2.11c-0.88,0.89-1.79,1.8-2.7,2.69
			c-0.14,0.14-0.18,0.22-0.18,0.46c0.01,1.57,0.01,3.16,0.01,4.7c0,1,0,2,0,3c0,1.14-0.4,2.13-1.2,2.92l-0.33,0.33
			c-2.87,2.87-5.84,5.84-8.76,8.76c-0.77,0.77-1.71,1.18-2.82,1.21c-3.28,0.1-5.79,2.52-6.14,5.9l0.05,0.15l0,0.14
			c0,0.24-0.01,0.48-0.01,0.72c-0.01,0.55-0.02,1.1-0.01,1.65c0,1.02-0.33,1.89-1.01,2.56l-0.78,0.78c-2.06,2.07-4.19,4.21-6.31,6.3
			C216.55,233.01,215.7,233.33,214.87,233.33z M190.18,188.74L190.18,188.74L190.18,188.74z"/>
		<path class="st1" d="M201.94,172.92h26.52v1.02c0,3.14-2.15,5.39-5.23,6.76c-0.95,0.18-2.11,0.36-3.46,0.53
			c1.2,0.42,2.27,0.55,3.21,0.52l-0.14,1.19c-0.12,0.96-0.15,2.08-2.5,2.08h-10.27c-2.35,0-2.37-1.12-2.5-2.08l-0.26-2.15
			c-3.15-1.36-5.37-3.65-5.37-6.9V172.92z"/>
		<path class="st1" d="M215.69,232.18v0.11c-0.22,0.02-0.41,0.03-0.58,0.02c-0.17,0.01-0.37,0-0.58-0.02v-0.11
			c-0.73-0.34-0.78-1.39-0.99-3.63l-2.43-40.59h4.76v13.4c-0.03,0.69,0.59,0.96,0.64,0l0.94-13.4h1.67l-2.43,40.59
			C216.48,230.79,216.42,231.84,215.69,232.18"/>
		<path class="st0" d="M259.4,179.49l-0.15,0.05L259.4,179.49c-0.47-1.37-1-2.71-1.61-4.03l0.01,0l-0.2-0.42l-0.01-0.03l0,0
			l-0.03-0.11h0c-0.4-1.15-0.86-2.27-1.37-3.38c-2.25-4.4-5.15-8.4-8.58-11.9c-3.74-3.82-8.11-7.03-12.94-9.45
			c0.01,0.17,0.01,0.35,0.02,0.52c0.01,0,0.01,0.01,0.02,0.01c0.39,0.21,0.78,0.42,1.16,0.63c0.23,0.14,0.46,0.28,0.7,0.43
			c0.34,0.2,0.68,0.41,1,0.62c0.24,0.16,0.47,0.32,0.71,0.49c0.31,0.21,0.62,0.42,0.91,0.64c0.24,0.17,0.47,0.36,0.7,0.54
			c0.29,0.22,0.57,0.45,0.85,0.68c0.23,0.19,0.45,0.39,0.67,0.59c0.27,0.24,0.53,0.47,0.79,0.72c0.19,0.18,0.38,0.37,0.57,0.55
			c-2.57-2.08-5.29-3.91-8.08-5.48c0,0.18,0.01,0.37,0.01,0.55c0.02,0.01,0.04,0.02,0.05,0.03c0.29,0.16,0.58,0.33,0.86,0.5
			c0.38,0.23,0.77,0.47,1.15,0.71c0.28,0.17,0.56,0.35,0.83,0.52c0.39,0.25,0.78,0.52,1.17,0.79c0.26,0.18,0.52,0.35,0.78,0.53
			c0.42,0.3,0.84,0.61,1.25,0.92c0.22,0.16,0.44,0.32,0.65,0.48c0.59,0.46,1.18,0.92,1.76,1.41c0.04,0.03,0.07,0.05,0.1,0.08
			c0.45,0.38,0.9,0.77,1.35,1.17c-1.72-0.19-3.85-0.33-6.36-0.45c-0.85-2.08-4.32-5.84-5.84-7.51c0,0.23-0.01,0.46-0.02,0.69
			c0.03,0.04,3.44,3.53,5.02,6.12c-0.95-0.86-4.16-3.53-5.12-4.31c-0.01,0.19-0.03,0.38-0.05,0.57c0.53,0.43,3.3,2.73,3.82,3.18
			c0.21,0.18,0.42,0.38,0.64,0.57c0.24,0.21,0.48,0.42,0.72,0.64c-1.04-0.05-4.82-0.52-5.94-0.56c-0.03,0.16-0.21,0.32-0.24,0.47
			c1.32,0.05,5.45,0.53,6.66,0.59c1.04,2.68,1.51,5.71,1.51,8.93c0,1.52-0.11,3.07-0.31,4.65c0.09,0.04,0.19,0.09,0.28,0.13
			c0.06,0.03,0.11,0.05,0.17,0.08c0.22-1.65,0.33-3.27,0.33-4.86c0-2.95-0.4-5.76-1.25-8.3c0.11,0.11,0.23,0.22,0.34,0.33
			c0.31,0.29,0.61,0.58,0.91,0.88c0.3,0.3,0.61,0.61,0.91,0.92c0.29,0.3,0.59,0.59,0.88,0.9c0.31,0.32,0.6,0.66,0.91,0.99
			c0.28,0.3,0.56,0.6,0.83,0.9c0.31,0.35,0.61,0.7,0.92,1.06c0.26,0.3,0.52,0.59,0.76,0.89c0.33,0.4,0.65,0.81,0.98,1.21
			c0.22,0.27,0.44,0.53,0.65,0.8c0.52,0.67,1.03,1.35,1.53,2.04c0.14,0.19,0.27,0.39,0.41,0.58c0.37,0.53,0.74,1.05,1.1,1.59
			c0.19,0.28,0.36,0.56,0.54,0.85c0.23,0.35,0.46,0.7,0.68,1.06c-2.36-0.09-5.02-0.17-7.96-0.24c0.36,0.17,0.73,0.33,1.09,0.5
			c2.6,0.06,4.97,0.14,7.09,0.22c0.1,1.03,0.14,2.07,0.14,3.12c0,4.83-0.93,9.87-2.58,14.88c-0.49-1.38-1.02-2.74-1.6-4.1
			c-0.12,0.12-0.25,0.24-0.37,0.37c0.08,0.2,0.16,0.4,0.24,0.6c0.19,0.47,0.39,0.94,0.57,1.41c0.15,0.39,0.29,0.78,0.43,1.18
			c0.13,0.35,0.26,0.7,0.38,1.05h-4.55c0,0.16,0,0.32,0,0.48h4.55c-2.21,6.38-5.45,12.57-9.24,18.44c-0.29-1.57-0.66-3.15-1.1-4.74
			c-0.13,0.13-0.26,0.26-0.39,0.39c0.03,0.09,0.05,0.18,0.08,0.27c0.12,0.46,0.23,0.93,0.34,1.39c0.08,0.32,0.16,0.64,0.23,0.96
			c0.1,0.44,0.18,0.88,0.26,1.32c0.05,0.27,0.11,0.55,0.16,0.81c-2.56,0.04-5.23,0.08-7.98,0.11c-0.63,0.09-1.23,0.26-1.78,0.5
			c3.33-0.03,6.53-0.07,9.6-0.13c-3.73,5.68-7.79,10.8-11.8,15.34c-0.27-2.91-1.04-6.01-2.13-9.27c-0.01,0.12-0.03,0.23-0.04,0.35
			c0.1,0.04,0.17,0.08,0.06,0.19c-0.02-0.06-0.04-0.12-0.06-0.19c0.02,0.06,0.04,0.12,0.06,0.19c0,0.34-0.01,0.68-0.01,1.02
			c0,0,0,0,0,0c0.08,0.25,0.16,0.51,0.23,0.75c0.19,0.66,0.37,1.31,0.53,1.95c0.03,0.11,0.05,0.22,0.08,0.33
			c0.13,0.53,0.25,1.05,0.35,1.56c0.05,0.23,0.08,0.46,0.12,0.71c0.07,0.38,0.14,0.77,0.2,1.14c0.04,0.26,0.05,0.52,0.09,0.79
			c0.03,0.28,0.07,0.55,0.09,0.82c-2.38,0.05-4.82,0.08-7.29,0.11c-0.16,0.16-0.32,0.32-0.48,0.48c2.54-0.02,5.05-0.05,7.49-0.1
			c-3.45,3.86-6.6,7-9.26,9.41c-0.2-1.98-1.14-4.32-2.46-7c-0.25-0.1-0.49-0.24-0.68-0.43c-0.05-0.05-0.09-0.09-0.14-0.14
			c0.11,0.22,0.22,0.45,0.33,0.67c0.07,0.14,0.15,0.29,0.22,0.43c0.15,0.32,0.29,0.62,0.44,0.93c0.06,0.14,0.13,0.28,0.19,0.4
			c0.16,0.36,0.31,0.71,0.45,1.05c0.03,0.07,0.06,0.15,0.09,0.21c0.17,0.41,0.32,0.81,0.45,1.19c0.02,0.05,0.03,0.11,0.05,0.17
			c0.11,0.32,0.21,0.64,0.29,0.95c0.03,0.11,0.05,0.22,0.07,0.35c0.06,0.24,0.12,0.48,0.15,0.7c0.02,0.12,0.02,0.24,0.04,0.38
			c0.02,0.14,0.04,0.28,0.05,0.42c-1.19,0.01-2.38,0.02-3.57,0.02c-1.19,0-2.38,0-3.57-0.02c0.15-2.31,1.48-5.29,3.33-8.83
			c-0.12-0.12-0.24-0.24-0.35-0.35c-1.83,3.5-3.19,6.47-3.43,8.91c-2.66-2.41-5.8-5.56-9.26-9.41c2.96,0.06,6,0.1,9.08,0.11
			c1.07,0.01,2.15,0.01,3.23,0.01c-0.16-0.16-0.32-0.32-0.48-0.48c-4.14-0.01-8.21-0.05-12.13-0.13c0.38-4.57,2.03-9.69,4.29-15.2
			c1.27,2.16,2.5,4.23,3.69,6.24c0.11-0.12,0.23-0.24,0.34-0.35c-1.18-1.99-2.4-4.05-3.65-6.18c1.66,0.01,3.33,0.01,5,0.01
			c-0.19-0.16-0.38-0.32-0.58-0.48c-1.5,0-2.99-0.01-4.48-0.01c0.34-0.82,0.7-1.65,1.06-2.47c-0.02-0.02-0.04-0.03-0.07-0.05
			c-0.12-0.08-0.22-0.16-0.32-0.25c-0.36,0.82-0.72,1.65-1.06,2.47c-3.53-6.03-7.03-12.26-10.04-18.73h0.88
			c-0.39-0.13-0.79-0.27-1.18-0.4c-0.19-0.06-0.35-0.14-0.51-0.21c0.02,0.05,0.04,0.09,0.06,0.14h-15.5
			c0.68-1.96,1.46-3.9,2.31-5.82c-0.12-0.12-0.24-0.24-0.36-0.36c-0.84,1.87-1.61,3.77-2.29,5.68c-1.64-5.01-2.58-10.06-2.58-14.88
			c0-1.05,0.04-2.1,0.13-3.12c0.21-0.01,0.43-0.02,0.64-0.02c0.17-0.01,0.33-0.01,0.5-0.02c0.27-0.01,0.56-0.02,0.84-0.03
			c0.18-0.01,0.35-0.01,0.52-0.02c0.35-0.01,0.71-0.02,1.07-0.03c0.12,0,0.23-0.01,0.35-0.01c0.67-0.02,1.36-0.04,2.07-0.06
			c0.16-0.16,0.33-0.33,0.49-0.49c-2.28,0.06-4.38,0.12-6.28,0.2c3.46-5.59,7.71-10.64,12.35-15.02c-0.37,1.08-0.64,2.2-0.85,3.36
			c0.17-0.03,0.33-0.05,0.49-0.06c0.25-1.37,0.6-2.68,1.08-3.91h0.01l0-0.01c2.05-0.1,4.25-0.18,6.58-0.25
			c0.16-0.18,0.34-0.34,0.56-0.47c0.01-0.01,0.03-0.01,0.04-0.02c-2.37,0.07-4.62,0.15-6.71,0.24c3.57-3.24,7.21-5.96,10.78-8.12
			c0.04-0.21,0.08-0.42,0.12-0.63c-3.61,2.14-7.28,4.86-10.89,8.1c1.76-3.77,4.83-6.89,8.58-8.87c0.22-0.02,0.44-0.04,0.67-0.06
			c0.13-0.01,0.25-0.02,0.38-0.03c0.18-0.01,0.37-0.03,0.56-0.04c0.21-0.01,0.4-0.03,0.61-0.04c0.09-0.01,0.02,0,0.12-0.01
			c0.04-0.16,0.11-0.32,0.15-0.49c-0.4,0.02-0.65,0.04-1.02,0.07c0.42-0.16,0.75-0.28,1.17-0.43c0.08-0.31,0.25-0.65,0.34-0.97
			c-2,0.56-3.96,1.23-5.84,2.03c-1.44,0.6-2.83,1.28-4.2,2.01c-4.33,2.34-8.26,5.31-11.68,8.8c-3.42,3.5-6.33,7.51-8.58,11.9
			c-0.52,1.11-0.97,2.23-1.37,3.37l-0.04,0.12l-0.01,0.01l-0.07,0.15l-0.12,0.25l0.01,0c-0.6,1.31-1.13,2.64-1.59,4
			c-1.38,4.52-2.13,9.3-2.13,14.27c0,0.03,0,0.05,0,0.07c0.01,4.91,0.74,9.65,2.1,14.12c0.51,1.5,1.1,2.96,1.77,4.4l0.03,0.06
			l0.02,0.04c0.4,1.16,0.87,2.31,1.39,3.44c2.32,4.53,5.32,8.64,8.87,12.21c3.35,3.36,7.18,6.23,11.39,8.51
			c1.5,0.81,3.06,1.55,4.65,2.2c2.7,1.11,5.53,1.98,8.45,2.59c1.08,0.22,2.17,0.42,3.28,0.57c0.72,0.1,1.45,0.18,2.18,0.25
			c0.55,0.05,1.11,0.09,1.67,0.13c0.51,0.03,1.03,0.05,1.55,0.07c0.31,0.01,0.62,0.01,0.93,0.02c0.12,0,0.24,0,0.35,0
			c0.01,0,0.02,0,0.04,0c0.11,0,0.22,0,0.33,0h0.01c0.15,0,0.31,0,0.46-0.01l0.03,0c0.39-0.01,0.8-0.02,1.2-0.03
			c0.05,0,0.1,0,0.15-0.01c5.74-0.25,11.22-1.5,16.27-3.57c0.15-0.06,0.3-0.12,0.45-0.19c5.88-2.48,11.17-6.08,15.6-10.53
			c3.55-3.56,6.55-7.68,8.86-12.2c0.52-1.12,0.98-2.25,1.38-3.4l0.03-0.09l0,0l0.06-0.13l0.14-0.29l0,0
			c0.61-1.33,1.15-2.69,1.61-4.06c1.35-4.46,2.08-9.18,2.09-14.07v-0.08C261.5,188.76,260.77,183.99,259.4,179.49z M259.09,187.14
			c0,1.69-0.11,3.39-0.32,5.09c-1.18-5.94-3.61-11.79-6.88-17.25c0.21,0.01,0.41,0.02,0.61,0.03c0.11,0.01,0.21,0.01,0.32,0.02
			c0.19,0.01,0.39,0.02,0.57,0.03c0.11,0.01,0.22,0.01,0.33,0.02c0.17,0.01,0.33,0.02,0.49,0.03c0.12,0.01,0.23,0.01,0.34,0.02
			c0.14,0.01,0.28,0.01,0.41,0.02c0.12,0.01,0.24,0.02,0.36,0.03c0.11,0.01,0.23,0.02,0.33,0.02c0.13,0.01,0.24,0.02,0.36,0.03
			c0.09,0.01,0.17,0.02,0.25,0.02c0.12,0.01,0.23,0.03,0.35,0.04c0.07,0.01,0.14,0.02,0.2,0.02c0.13,0.02,0.26,0.04,0.38,0.06
			C258.47,179.09,259.1,183.08,259.09,187.14z M249.13,193.93h9.38c-1.05,6.08-3.43,12.11-6.74,17.74c0.05-0.78,0.08-1.57,0.08-2.36
			C251.85,204.32,250.86,199.1,249.13,193.93z M246.76,159.65c0.13,0.03,0.23,0.07,0.31,0.1h0l-0.01,0.01l0.17,0.16l0.05,0.05
			l0.11,0.12l0.01-0.01c3.13,3.06,5.78,6.59,7.75,10.43c-2.47-4.03-5.56-7.74-9.07-11.03c0.03,0.01,0.07,0.01,0.1,0.02
			c0.07,0.01,0.14,0.03,0.21,0.04c0.04,0.01,0.07,0.02,0.1,0.02C246.59,159.61,246.68,159.63,246.76,159.65z M242.03,155.24
			c1.55,1.18,3.02,2.46,4.38,3.83c-0.27-0.06-0.59-0.11-0.93-0.16C244.44,157.61,243.28,156.38,242.03,155.24z M238.76,158.87
			c0.01,0,0.03,0,0.05,0c0.16,0.01,0.32,0.02,0.47,0.02c0.17,0.01,0.34,0.02,0.5,0.03c0.17,0.01,0.34,0.02,0.51,0.03
			c0.16,0.01,0.31,0.02,0.47,0.03c0.16,0.01,0.33,0.02,0.49,0.03c0.16,0.01,0.31,0.02,0.46,0.03c0.15,0.01,0.3,0.02,0.44,0.03
			c0.17,0.01,0.33,0.03,0.5,0.04c0.12,0.01,0.24,0.02,0.36,0.03c0.18,0.02,0.35,0.03,0.52,0.05c0.1,0.01,0.19,0.02,0.29,0.03
			c0.2,0.02,0.4,0.04,0.59,0.06c0.06,0.01,0.12,0.01,0.17,0.02c0.22,0.02,0.44,0.05,0.65,0.07c0.2,0.25,0.39,0.5,0.57,0.76
			c0.05,0.07,0.1,0.14,0.15,0.22c0.15,0.21,0.29,0.41,0.43,0.62c0.06,0.09,0.13,0.19,0.19,0.29c0.12,0.19,0.25,0.38,0.36,0.57
			c0.07,0.11,0.13,0.22,0.2,0.33c0.11,0.18,0.22,0.37,0.32,0.55c0.07,0.12,0.13,0.24,0.2,0.36c0.1,0.18,0.2,0.36,0.29,0.54
			c0.06,0.12,0.13,0.25,0.19,0.38c0.09,0.18,0.18,0.36,0.27,0.54c0.06,0.13,0.12,0.26,0.18,0.4c0.08,0.18,0.17,0.36,0.25,0.54
			c0.06,0.14,0.11,0.28,0.17,0.41c0.08,0.18,0.15,0.36,0.22,0.54c0.06,0.14,0.11,0.29,0.16,0.43c0.07,0.18,0.14,0.36,0.2,0.54
			c0.05,0.15,0.1,0.29,0.15,0.44c0.06,0.18,0.12,0.36,0.18,0.54c0.05,0.15,0.09,0.3,0.14,0.45c0.06,0.18,0.11,0.37,0.16,0.55
			c0.04,0.15,0.08,0.31,0.12,0.46c0.05,0.18,0.1,0.37,0.14,0.55c0.04,0.16,0.07,0.32,0.11,0.48c0.04,0.18,0.08,0.37,0.12,0.55
			c0.03,0.16,0.06,0.32,0.09,0.48c0.04,0.19,0.07,0.37,0.1,0.55c0.03,0.16,0.05,0.33,0.08,0.49c0.03,0.18,0.06,0.37,0.08,0.55
			c0.01,0.06,0.02,0.12,0.02,0.18C247.61,168.17,243.37,163.19,238.76,158.87z M247.01,161.06c0.1,0.1,0.19,0.19,0.29,0.29
			c0.32,0.32,0.62,0.64,0.93,0.97c0.26,0.27,0.51,0.54,0.76,0.82c0.3,0.33,0.59,0.67,0.89,1.01c0.24,0.28,0.49,0.56,0.72,0.84
			c0.29,0.35,0.57,0.71,0.85,1.06c0.22,0.29,0.45,0.57,0.67,0.86c0.28,0.37,0.55,0.76,0.82,1.14c0.2,0.28,0.41,0.56,0.6,0.84
			c0.29,0.42,0.56,0.86,0.84,1.3c0.16,0.25,0.32,0.5,0.48,0.74c0.42,0.68,0.81,1.38,1.19,2.08c0.08,0.14,0.15,0.29,0.22,0.44
			c0.24,0.46,0.48,0.92,0.7,1.38c-1.2-0.17-2.97-0.25-5.3-0.34C251.18,169.64,249.57,165.01,247.01,161.06z M251.85,178.07
			c0-0.79-0.03-1.58-0.08-2.36c0.31,0.52,0.61,1.05,0.9,1.58l0.13-0.07l-0.13,0.07c0.03,0.06,0.07,0.13,0.11,0.2
			c0.37,0.68,0.73,1.37,1.08,2.06c0.03,0.06,0.05,0.11,0.09,0.18c0.35,0.7,0.68,1.41,0.99,2.12c0.02,0.05,0.04,0.09,0.06,0.15
			c0.32,0.72,0.62,1.45,0.9,2.18c0.01,0.03,0.03,0.07,0.04,0.11c0.29,0.74,0.56,1.49,0.81,2.24c0.01,0.02,0.01,0.04,0.02,0.06
			c0.25,0.77,0.49,1.53,0.71,2.3l0,0.01c0.22,0.77,0.41,1.55,0.59,2.32c0.01,0.02,0.01,0.04,0.01,0.05
			c0.16,0.73,0.31,1.46,0.43,2.19h-9.38C250.86,188.29,251.85,183.08,251.85,178.07z M248.79,194.44c0.06,0.19,0.12,0.39,0.18,0.58
			c0.09,0.28,0.18,0.56,0.26,0.83c0.12,0.38,0.22,0.77,0.33,1.15c0.07,0.27,0.15,0.53,0.22,0.79c0.1,0.39,0.19,0.79,0.29,1.18
			c0.06,0.26,0.13,0.51,0.18,0.76c0.09,0.4,0.16,0.8,0.24,1.2c0.05,0.25,0.11,0.5,0.15,0.74c0.07,0.4,0.13,0.8,0.2,1.21
			c0.04,0.24,0.08,0.49,0.12,0.72c0.06,0.41,0.1,0.82,0.15,1.23c0.03,0.23,0.06,0.46,0.08,0.68c0.04,0.43,0.07,0.86,0.09,1.3
			c0.01,0.2,0.03,0.41,0.04,0.61c0.03,0.63,0.05,1.26,0.05,1.88c0,1.06-0.05,2.1-0.14,3.13c-3.31,0.13-7.23,0.23-11.7,0.32
			C243.31,206.94,246.55,200.79,248.79,194.44z M238.28,229.03c1.26-0.06,2.42-0.13,3.49-0.21c0.07,0,0.15-0.01,0.23-0.01
			c0.12-0.01,0.24-0.02,0.35-0.03c0.17-0.01,0.34-0.03,0.5-0.04c0.02,0,0.03,0,0.05,0c0.62-0.05,1.2-0.1,1.73-0.16
			c-3.91,3.48-8.2,6.37-12.65,8.59C234.76,235.04,236.97,232.25,238.28,229.03z M228.87,238.59c-1.21,0.11-2.59,0.2-4.14,0.27
			c4.19-2.27,8.51-5.36,12.73-9.14C235.69,233.48,232.63,236.61,228.87,238.59z M238.76,228.53c4.62-4.33,8.86-9.31,12.34-14.83
			c-0.69,5.3-2.72,10.29-5.87,14.33C243.53,228.24,241.36,228.39,238.76,228.53z M251.02,212.93c-3.46,5.59-7.7,10.63-12.34,15.01
			c0.86-2.54,1.26-5.36,1.26-8.32c0-2.07-0.19-4.21-0.56-6.38C243.81,213.16,247.71,213.06,251.02,212.93z M238.96,213.65
			c0.02,0.1,0.03,0.21,0.05,0.31c0.04,0.29,0.09,0.58,0.13,0.87c0.04,0.29,0.06,0.57,0.1,0.86c0.03,0.25,0.06,0.5,0.08,0.75
			c0.03,0.34,0.05,0.67,0.07,1.01c0.01,0.2,0.03,0.4,0.04,0.59c0.02,0.53,0.04,1.05,0.04,1.57c0,3.23-0.48,6.26-1.51,8.94
			c-3.23,0.15-6.83,0.27-10.74,0.35C231.19,224.4,235.23,219.31,238.96,213.65z M226.92,229.41h0.05l0-0.01
			c3.81-0.08,7.33-0.19,10.5-0.33c-4.22,3.83-8.54,6.95-12.73,9.25c1.5-1.99,2.22-4.74,2.22-7.74
			C226.95,230.19,226.94,229.8,226.92,229.41z M226.46,229.76c0.01,0.27,0.02,0.55,0.02,0.82c0,3.42-0.97,6.47-2.9,8.34
			c-1.98,0.08-4.09,0.14-6.3,0.17C219.94,236.68,223.05,233.56,226.46,229.76z M200.32,230.98c0.17,0.18,0.33,0.36,0.5,0.54
			c0.28,0.3,0.56,0.61,0.83,0.9c0.18,0.19,0.35,0.37,0.52,0.55c0.26,0.27,0.52,0.55,0.77,0.81c0.17,0.18,0.33,0.34,0.5,0.51
			c0.25,0.26,0.51,0.52,0.75,0.77c0.17,0.17,0.33,0.33,0.49,0.49c0.24,0.24,0.48,0.48,0.72,0.72c0.17,0.16,0.32,0.32,0.49,0.47
			c0.23,0.22,0.46,0.44,0.68,0.66c0.17,0.16,0.32,0.31,0.49,0.46c0.21,0.2,0.43,0.4,0.63,0.59c0.17,0.16,0.33,0.31,0.5,0.46
			c0.07,0.06,0.13,0.12,0.2,0.18c-2.21-0.03-4.32-0.09-6.29-0.17c-1.93-1.88-2.9-4.92-2.9-8.34c0-0.26,0.01-0.51,0.02-0.77
			l0.02,0.03v-0.06C199.6,230.18,199.96,230.59,200.32,230.98z M198.75,229.41c-0.03,0.39-0.04,0.78-0.04,1.17
			c0,0.43,0.02,0.85,0.05,1.27c0.01,0.15,0.03,0.28,0.04,0.41c0.03,0.27,0.05,0.55,0.09,0.82c0.03,0.16,0.06,0.32,0.09,0.47
			c0.04,0.24,0.09,0.47,0.14,0.71c0.04,0.17,0.09,0.33,0.13,0.48c0.06,0.21,0.12,0.43,0.19,0.65c0.05,0.16,0.12,0.32,0.17,0.47
			c0.07,0.2,0.15,0.4,0.24,0.59c0.07,0.15,0.14,0.3,0.22,0.44c0.09,0.18,0.19,0.36,0.29,0.54c0.08,0.14,0.17,0.28,0.26,0.41
			c0.11,0.17,0.22,0.33,0.34,0.49c0,0,0,0,0,0c-4.2-2.3-8.53-5.43-12.76-9.27c3.18,0.15,6.71,0.26,10.53,0.34l0,0.01H198.75z
			 M187.73,228.57c-1.04-2.68-1.52-5.72-1.52-8.94c0-1.93,0.17-3.94,0.49-5.97c0.16,0.24,0.32,0.48,0.48,0.72
			c0.24,0.36,0.49,0.73,0.73,1.09c0.26,0.38,0.52,0.74,0.78,1.11c0.24,0.34,0.48,0.69,0.72,1.03c0.28,0.4,0.57,0.78,0.86,1.17
			c0.22,0.3,0.44,0.61,0.67,0.91c0.39,0.53,0.79,1.04,1.19,1.56c0.24,0.31,0.47,0.61,0.71,0.91c0.4,0.51,0.8,1.02,1.2,1.52
			c0.22,0.27,0.44,0.53,0.65,0.79c0.3,0.37,0.61,0.75,0.92,1.12c0.24,0.29,0.49,0.57,0.73,0.86c0.28,0.33,0.56,0.67,0.84,0.99
			c0.26,0.3,0.51,0.58,0.76,0.87c0.18,0.2,0.35,0.4,0.53,0.6C194.56,228.84,190.96,228.72,187.73,228.57z M185.73,219.63
			c0,0.41,0.01,0.81,0.02,1.21c0.01,0.14,0.02,0.28,0.02,0.41c0.01,0.26,0.03,0.52,0.05,0.78c0.01,0.17,0.03,0.34,0.05,0.51
			c0.02,0.22,0.04,0.44,0.07,0.67c0.02,0.18,0.05,0.36,0.07,0.54c0.03,0.2,0.06,0.41,0.09,0.61c0.03,0.19,0.07,0.37,0.1,0.55
			c0.04,0.19,0.07,0.39,0.11,0.58c0.04,0.19,0.08,0.37,0.13,0.54c0.04,0.18,0.09,0.37,0.14,0.56c0.05,0.18,0.1,0.36,0.15,0.54
			c0.05,0.18,0.11,0.36,0.16,0.54c0.03,0.1,0.06,0.2,0.1,0.29c-4.64-4.38-8.89-9.43-12.35-15.02c3.31,0.13,7.21,0.23,11.64,0.32
			C185.93,215.42,185.73,217.56,185.73,219.63z M174.86,214.13c0.23,0.35,0.45,0.71,0.68,1.07c0.25,0.38,0.52,0.75,0.78,1.12
			c0.24,0.34,0.47,0.69,0.71,1.03c0.27,0.38,0.55,0.74,0.83,1.11c0.24,0.32,0.48,0.66,0.74,0.98c0.3,0.38,0.6,0.75,0.9,1.12
			c0.24,0.3,0.48,0.6,0.73,0.9c0.4,0.47,0.8,0.93,1.21,1.4c0.37,0.42,0.75,0.84,1.13,1.26c0.36,0.39,0.72,0.79,1.09,1.18
			c0.28,0.29,0.56,0.57,0.84,0.85c0.32,0.32,0.64,0.65,0.96,0.97c0.3,0.29,0.6,0.57,0.9,0.86c0.19,0.18,0.38,0.37,0.57,0.55
			c-2.61-0.14-4.78-0.29-6.48-0.5c-3.15-4.04-5.19-9.04-5.87-14.34C174.67,213.83,174.76,213.98,174.86,214.13z M181.16,228.59
			c0.11,0.01,0.22,0.02,0.33,0.03c0.14,0.01,0.28,0.03,0.43,0.04c0.12,0.01,0.25,0.02,0.37,0.03c0.14,0.01,0.28,0.03,0.43,0.04
			c0.14,0.01,0.28,0.02,0.43,0.03c0.14,0.01,0.28,0.02,0.43,0.03c0.15,0.01,0.31,0.02,0.46,0.03c0.15,0.01,0.29,0.02,0.45,0.03
			c0.16,0.01,0.33,0.02,0.49,0.03c0.15,0.01,0.3,0.02,0.46,0.03c0.18,0.01,0.36,0.02,0.55,0.03c0.15,0.01,0.3,0.02,0.45,0.02
			c0.31,0.02,0.62,0.03,0.94,0.05c0.17,0.41,0.35,0.81,0.55,1.21c0.03,0.05,0.05,0.11,0.08,0.17c0.2,0.4,0.42,0.8,0.66,1.18
			c0.04,0.07,0.08,0.14,0.13,0.21c0.23,0.38,0.48,0.75,0.74,1.12c0.04,0.06,0.09,0.12,0.13,0.18c0.27,0.37,0.55,0.73,0.85,1.08
			c0.03,0.04,0.06,0.07,0.08,0.09c0.3,0.35,0.61,0.68,0.93,1.01c0.03,0.03,0.05,0.05,0.09,0.09c0.33,0.33,0.66,0.64,1.01,0.94
			c0.06,0.05,0.11,0.1,0.18,0.15c0.29,0.25,0.59,0.49,0.9,0.72c-4.46-2.22-8.77-5.12-12.69-8.6
			C181.07,228.58,181.12,228.58,181.16,228.59z M188.21,229.7c0.13,0.11,0.26,0.22,0.38,0.34c0.24,0.21,0.48,0.43,0.72,0.64
			c0.37,0.32,0.74,0.63,1.11,0.94c0.22,0.18,0.44,0.37,0.66,0.55c0.44,0.36,0.89,0.71,1.33,1.05c0.15,0.12,0.3,0.24,0.45,0.36
			c0.59,0.45,1.19,0.89,1.78,1.32c0.16,0.12,0.32,0.22,0.48,0.33c0.43,0.3,0.87,0.61,1.3,0.9c0.23,0.16,0.47,0.3,0.7,0.45
			c0.36,0.23,0.72,0.47,1.07,0.69c0.26,0.16,0.51,0.31,0.77,0.46c0.33,0.2,0.66,0.4,1,0.59c0.27,0.15,0.53,0.29,0.8,0.44
			c0.07,0.04,0.14,0.08,0.21,0.12c-1.55-0.08-2.95-0.17-4.16-0.28C193.04,236.6,189.97,233.48,188.21,229.7z M198.82,228.59
			c-4.01-4.54-8.07-9.65-11.8-15.33c5.03,0.09,10.45,0.14,16.15,0.17C200.92,218.89,199.26,223.99,198.82,228.59z M193.08,194.27
			c0.16,0.34,0.33,0.69,0.49,1.03c0.18,0.37,0.35,0.74,0.53,1.11c0.24,0.48,0.48,0.96,0.72,1.44c0.17,0.34,0.34,0.69,0.51,1.03
			c0.26,0.52,0.53,1.03,0.8,1.55c0.15,0.3,0.31,0.6,0.47,0.9c0.36,0.69,0.73,1.37,1.1,2.05c0.07,0.12,0.13,0.25,0.2,0.37
			c0.44,0.81,0.88,1.61,1.33,2.41c0.01,0.02,0.03,0.05,0.04,0.07c0.43,0.78,0.87,1.55,1.31,2.33c0.04,0.07,0.09,0.15,0.13,0.22
			c0.41,0.72,0.82,1.43,1.23,2.14c0.08,0.14,0.17,0.29,0.25,0.43c0.31,0.54,0.63,1.08,0.94,1.61c-5.74-0.03-11.19-0.09-16.26-0.18
			C187.93,206.77,190.2,200.55,193.08,194.27z M192.7,193.93c-2.86,6.24-5.14,12.44-6.26,18.44c-3.78-5.87-7.03-12.06-9.24-18.44
			H192.7z M176.88,194.43c0.11,0.3,0.22,0.6,0.33,0.9c0.13,0.35,0.25,0.71,0.39,1.07c0.19,0.49,0.4,0.98,0.6,1.47
			c0.13,0.33,0.26,0.66,0.41,0.99c0.23,0.53,0.47,1.05,0.71,1.58c0.13,0.28,0.25,0.57,0.39,0.86c0.29,0.62,0.6,1.24,0.91,1.85
			c0.09,0.18,0.18,0.37,0.27,0.56c0.82,1.6,1.68,3.18,2.59,4.75c0.12,0.21,0.25,0.41,0.37,0.61c0.34,0.57,0.68,1.15,1.03,1.72
			c0.16,0.26,0.33,0.52,0.49,0.77c0.26,0.41,0.51,0.81,0.77,1.22c-4.47-0.08-8.39-0.19-11.7-0.32c-0.09-1.03-0.13-2.07-0.13-3.12
			C174.29,204.49,175.23,199.44,176.88,194.43z M173.85,210.93c0.01,0.18,0.02,0.35,0.03,0.52c0.01,0.08,0.01,0.16,0.01,0.24
			c-3.31-5.63-5.7-11.67-6.75-17.76h9.38c-1.73,5.16-2.72,10.38-2.72,15.39C173.82,209.86,173.83,210.4,173.85,210.93z
			 M174.4,184.86c0.05,0.32,0.1,0.64,0.16,0.96c0.06,0.34,0.14,0.68,0.21,1.01c0.07,0.31,0.12,0.63,0.19,0.95
			c0.08,0.35,0.17,0.69,0.25,1.04c0.07,0.31,0.14,0.62,0.23,0.93c0.09,0.35,0.2,0.7,0.29,1.04c0.09,0.31,0.17,0.62,0.26,0.93
			c0.1,0.34,0.21,0.67,0.32,1c0.08,0.24,0.15,0.48,0.23,0.73h-9.38c1.04-6.09,3.43-12.12,6.74-17.74c-0.05,0.78-0.07,1.57-0.08,2.36
			c0,0.63,0.02,1.27,0.05,1.91c0.01,0.23,0.04,0.46,0.05,0.69c0.03,0.41,0.05,0.82,0.09,1.24c0.03,0.31,0.07,0.61,0.11,0.91
			c0.04,0.34,0.07,0.68,0.12,1.03C174.28,184.2,174.34,184.53,174.4,184.86z M174.57,173.69c0.69-5.3,2.73-10.3,5.88-14.33
			c1.7-0.21,3.87-0.36,6.47-0.5C182.3,163.19,178.05,168.17,174.57,173.69z M187.4,158.36c-2.51,0.13-4.65,0.26-6.37,0.46
			c3.91-3.47,8.21-6.37,12.65-8.58C190.91,152.35,188.7,155.14,187.4,158.36z M197.38,147.98c-0.24,0.12-0.48,0.24-0.72,0.36
			c-0.15,0.01-0.29,0.03-0.42,0.04C196.62,148.24,197,148.11,197.38,147.98z M193.95,149.28L193.95,149.28l0.18-0.07
			c0.26-0.09,0.62-0.16,1.07-0.23c-4.3,1.96-8.48,4.54-12.34,7.67C185.94,153.57,189.76,151.08,193.95,149.28z M183.65,155.23
			c-1.26,1.14-2.43,2.37-3.47,3.69c-0.34,0.04-0.65,0.1-0.92,0.16C180.63,157.7,182.1,156.42,183.65,155.23z M178.27,160.09
			L178.27,160.09l0.18-0.17l0.05-0.05l0.11-0.11l-0.01,0c0,0,0,0,0,0c0.2-0.08,0.55-0.18,0.98-0.26c-3.51,3.29-6.6,7-9.07,11.04
			C172.48,166.69,175.13,163.16,178.27,160.09z M178.66,161.04c-2.56,3.95-4.17,8.59-4.67,13.45c-2.33,0.1-4.09,0.18-5.3,0.34
			C171.15,169.77,174.58,165.11,178.66,161.04z M168.47,175.35c0.04-0.01,0.07-0.01,0.11-0.02c0.08-0.01,0.16-0.03,0.25-0.04
			c0.07-0.01,0.15-0.02,0.23-0.03c0.1-0.01,0.2-0.03,0.31-0.04c0.07-0.01,0.15-0.01,0.23-0.02c0.13-0.01,0.25-0.02,0.38-0.03
			c0.06,0,0.14-0.01,0.2-0.01c0.16-0.01,0.31-0.02,0.48-0.03c0.06,0,0.13-0.01,0.2-0.01c0.18-0.01,0.36-0.02,0.55-0.03
			c0.06,0,0.14-0.01,0.21-0.01c0.65-0.03,1.37-0.06,2.16-0.1c-3.28,5.46-5.69,11.31-6.88,17.26c-0.22-1.7-0.33-3.4-0.33-5.09
			C166.57,183.08,167.2,179.09,168.47,175.35z M166.99,178.88c-0.6,2.69-0.9,5.46-0.9,8.26c0,0.54,0.01,1.09,0.03,1.63
			c0.01,0.25,0.03,0.51,0.05,0.75c0.02,0.29,0.03,0.58,0.05,0.88c0.03,0.31,0.06,0.62,0.09,0.93c0.02,0.23,0.04,0.47,0.07,0.7
			c0.04,0.33,0.09,0.66,0.14,0.98c0.02,0.15,0.04,0.3,0.06,0.45h-2.03c-0.01-0.33-0.02-0.65-0.02-0.98
			C164.56,187.9,165.4,183.28,166.99,178.88z M164.56,194.91c0-0.33,0-0.66,0.02-0.98h2.02c-0.33,2.1-0.5,4.21-0.5,6.31
			c0,0.49,0.01,0.98,0.03,1.47c0.01,0.16,0.02,0.32,0.02,0.48c0.02,0.33,0.03,0.66,0.06,0.99c0.01,0.19,0.03,0.38,0.05,0.56
			c0.03,0.3,0.06,0.6,0.09,0.89c0.02,0.2,0.05,0.39,0.07,0.59c0.04,0.29,0.08,0.57,0.12,0.86c0.03,0.2,0.06,0.4,0.1,0.59
			c0.05,0.29,0.1,0.57,0.16,0.85c0.04,0.19,0.07,0.38,0.11,0.57c0.03,0.15,0.06,0.3,0.1,0.44
			C165.4,204.13,164.56,199.5,164.56,194.91z M166.57,200.24c0-1.69,0.11-3.4,0.33-5.1c0.09,0.46,0.19,0.91,0.29,1.37
			c0.02,0.09,0.04,0.18,0.06,0.26c0.17,0.71,0.35,1.41,0.55,2.12c0.02,0.08,0.05,0.16,0.07,0.23c0.21,0.71,0.43,1.42,0.67,2.13
			c0.02,0.07,0.05,0.13,0.07,0.2c0.25,0.72,0.51,1.44,0.79,2.15c0.02,0.05,0.04,0.1,0.06,0.14c0.29,0.73,0.6,1.46,0.92,2.18
			c0.01,0.03,0.03,0.05,0.03,0.08c0.67,1.5,1.41,2.97,2.21,4.42c0.01,0.01,0.01,0.03,0.02,0.04c0.36,0.65,0.74,1.3,1.12,1.94
			c-2.41-0.1-4.21-0.19-5.31-0.37C167.2,208.3,166.57,204.3,166.57,200.24z M168.7,212.56c0.02,0,0.04,0.01,0.07,0.01
			c1.2,0.16,2.95,0.24,5.24,0.34c0.06,0.6,0.14,1.2,0.24,1.8c0.01,0.04,0.01,0.09,0.02,0.14c0.1,0.61,0.22,1.22,0.36,1.81
			c0.02,0.07,0.03,0.14,0.05,0.22c0.14,0.58,0.29,1.16,0.46,1.73c0.02,0.08,0.05,0.17,0.08,0.25c0.17,0.56,0.36,1.12,0.56,1.66
			c0.03,0.09,0.07,0.17,0.1,0.26c0.21,0.54,0.43,1.08,0.66,1.61c0.04,0.08,0.08,0.17,0.11,0.25c0.24,0.53,0.5,1.05,0.77,1.57
			c0.04,0.07,0.08,0.14,0.11,0.21c0.28,0.52,0.58,1.03,0.89,1.53c0.03,0.06,0.07,0.1,0.1,0.15c0.06,0.09,0.11,0.18,0.17,0.27
			C174.59,222.29,171.15,217.62,168.7,212.56z M178.6,227.64L178.6,227.64l-0.16-0.17c-3.24-3.13-5.98-6.77-7.99-10.73
			c0.1,0.16,0.2,0.32,0.3,0.48c0.25,0.39,0.5,0.78,0.75,1.16c0.19,0.29,0.38,0.57,0.58,0.85c0.27,0.39,0.55,0.77,0.82,1.15
			c0.2,0.27,0.39,0.54,0.6,0.81c0.3,0.39,0.61,0.77,0.92,1.16c0.2,0.24,0.39,0.49,0.6,0.73c0.35,0.42,0.72,0.83,1.08,1.24
			c0.17,0.19,0.34,0.39,0.52,0.59c0.55,0.6,1.11,1.18,1.68,1.75c0.03,0.03,0.06,0.06,0.09,0.08c0.39,0.39,0.79,0.78,1.2,1.16
			c-0.26-0.05-0.49-0.11-0.68-0.16C178.78,227.7,178.68,227.67,178.6,227.64z M179.26,228.32c0.27,0.06,0.59,0.11,0.93,0.16
			c0.28,0.35,0.57,0.7,0.87,1.04c0.1,0.12,0.2,0.23,0.3,0.34c0.22,0.24,0.44,0.48,0.67,0.72c0.12,0.12,0.23,0.24,0.36,0.37
			c0.23,0.23,0.47,0.47,0.71,0.69c0.11,0.1,0.22,0.21,0.33,0.31c0.08,0.08,0.17,0.15,0.25,0.23
			C182.11,230.98,180.64,229.7,179.26,228.32z M194.09,238.17l-0.04-0.01c-4.26-1.82-8.13-4.34-11.25-7.47
			c0.22,0.18,0.44,0.35,0.66,0.53c0.27,0.22,0.55,0.43,0.83,0.65c0.37,0.28,0.75,0.55,1.12,0.82c0.27,0.2,0.54,0.39,0.81,0.59
			c0.41,0.28,0.82,0.55,1.23,0.83c0.25,0.16,0.49,0.33,0.75,0.49c0.53,0.34,1.07,0.66,1.6,0.98c0.13,0.08,0.26,0.16,0.4,0.25
			c0.68,0.39,1.35,0.77,2.04,1.13c0.2,0.11,0.4,0.2,0.6,0.3c0.49,0.25,0.98,0.5,1.47,0.74c0.25,0.12,0.51,0.23,0.76,0.35
			c0.06,0.03,0.12,0.05,0.18,0.08C194.75,238.35,194.37,238.27,194.09,238.17z M196.23,239.01c0.14,0.01,0.28,0.03,0.43,0.04
			c0.24,0.13,0.49,0.25,0.74,0.36C197.01,239.29,196.62,239.15,196.23,239.01z M198.27,239.19c1.1,0.08,2.31,0.14,3.61,0.19l0,0
			h0.01c0.17,0.16,0.35,0.31,0.53,0.45c0.06,0.05,0.13,0.09,0.19,0.14c0.15,0.11,0.3,0.21,0.45,0.32c0.07,0.05,0.14,0.09,0.21,0.13
			c0.17,0.11,0.35,0.21,0.54,0.31c0.04,0.02,0.09,0.05,0.15,0.08c0.21,0.11,0.42,0.21,0.64,0.31
			C202.53,240.66,200.41,240.01,198.27,239.19z M203.08,239.43c0.24,0.01,0.48,0.02,0.73,0.03c0.29,0.01,0.59,0.02,0.89,0.03
			c0.25,0.01,0.5,0.02,0.76,0.02c0.42,0.01,0.85,0.02,1.28,0.03c0.14,0,0.27,0.01,0.41,0.01c0.54,0.01,1.08,0.02,1.63,0.03
			c0.04,0.8,0.4,1.5,0.96,1.99c0.11,0.1,0.23,0.18,0.36,0.26C208.02,241.52,205.64,240.67,203.08,239.43z M209.3,239.9
			c0.08,0.07,0.17,0.15,0.25,0.22c0.15,0.13,0.3,0.26,0.44,0.38c0.05,0.05,0.11,0.09,0.16,0.14c0.15,0.13,0.29,0.25,0.43,0.37
			c0.04,0.04,0.09,0.08,0.13,0.11c0.18,0.15,0.35,0.29,0.51,0.42c0.15,0.12,0.3,0.23,0.43,0.33
			C210.43,241.74,209.51,240.97,209.3,239.9z M213.32,241.78c-0.06,0.04-0.11,0.07-0.16,0.1c-0.01,0-0.02,0-0.03,0v0.15l-0.01-0.15
			c-0.09,0-0.18,0.01-0.28,0.01h-0.28l0,0.02c-0.06-0.03-0.13-0.07-0.21-0.12c-0.58-0.37-1.57-1.21-2.7-2.21
			c1.06,0.01,2.12,0.02,3.19,0.02c1.06,0,2.13-0.01,3.19-0.02c-0.7,0.62-1.35,1.18-1.88,1.6
			C213.82,241.44,213.54,241.64,213.32,241.78z M214.38,241.82c-0.09,0-0.2,0-0.3,0.01c0.61-0.46,1.41-1.15,2.29-1.92
			C216.18,240.86,215.43,241.58,214.38,241.82z M215.67,241.76c0.09-0.06,0.18-0.13,0.26-0.2c0.56-0.49,0.92-1.19,0.96-1.99
			c1.98-0.03,3.88-0.07,5.68-0.14c-2.37,1.15-4.58,1.96-6.54,2.31C215.92,241.75,215.8,241.76,215.67,241.76z M221.07,241.12
			c1.02-0.45,1.93-1.02,2.69-1.73c1.31-0.05,2.53-0.12,3.63-0.2C225.26,240.01,223.14,240.66,221.07,241.12z M228.8,239.24
			c-0.16,0.06-0.33,0.11-0.5,0.17c0.24-0.11,0.47-0.23,0.7-0.35c0.15-0.01,0.29-0.03,0.43-0.04
			C229.22,239.09,229.01,239.16,228.8,239.24z M231.63,238.15l-0.05,0.02c-0.27,0.1-0.65,0.17-1.11,0.24
			c4.3-1.96,8.49-4.54,12.36-7.67C239.71,233.84,235.86,236.35,231.63,238.15z M242.02,232.15c1.26-1.14,2.42-2.36,3.46-3.68
			c0.07-0.01,0.14-0.02,0.21-0.03c0.04-0.01,0.09-0.01,0.14-0.02c0.12-0.02,0.23-0.04,0.34-0.06c0.01,0,0.03-0.01,0.06-0.01
			c0.06-0.01,0.12-0.02,0.18-0.04C245.04,229.69,243.57,230.97,242.02,232.15z M247.34,227.57l-0.11-0.11l-0.06,0.06l-0.11,0.11
			l0.01,0.01c-0.2,0.08-0.55,0.18-0.99,0.26c3.51-3.29,6.6-7.01,9.08-11.05c-2,3.91-4.72,7.51-7.93,10.62L247.34,227.57z
			 M247,226.35c2.56-3.95,4.17-8.58,4.67-13.44c2.33-0.1,4.1-0.18,5.29-0.35C254.52,217.62,251.08,222.28,247,226.35z M257.2,212.04
			c-1.11,0.18-2.9,0.27-5.31,0.37c3.27-5.45,5.7-11.31,6.88-17.24c0.02,0.13,0.04,0.27,0.05,0.4c0.04,0.31,0.06,0.61,0.09,0.92
			c0.02,0.22,0.04,0.43,0.06,0.64c0.03,0.34,0.04,0.69,0.06,1.03c0.01,0.18,0.02,0.36,0.03,0.53c0.02,0.52,0.03,1.04,0.03,1.55
			C259.1,204.31,258.47,208.3,257.2,212.04z M258.68,208.49c0.59-2.68,0.89-5.45,0.89-8.25c0-2.1-0.17-4.21-0.5-6.31h2.03
			c0.01,0.33,0.01,0.66,0.01,0.99C261.11,199.49,260.27,204.1,258.68,208.49z M261.1,193.46h-2.03c0.33-2.1,0.5-4.22,0.5-6.32
			c0-2.8-0.3-5.57-0.89-8.25c1.59,4.4,2.44,9.02,2.44,13.59C261.11,192.8,261.11,193.13,261.1,193.46z"/>
		<path class="st0" d="M232.43,165.99c0.4,0.52,0.8,1.05,1.2,1.58c0.32,0.42,0.63,0.84,0.94,1.27c0.31,0.42,0.61,0.83,0.92,1.25
			c0.22,0.31,0.45,0.64,0.67,0.96c0.06,0.09,0.12,0.17,0.18,0.26c0.29,0.13,0.57,0.26,0.86,0.39c-4-5.91-5.66-7.42-7.46-9.69
			c-0.08,0.16-0.16,0.31-0.24,0.47c0,0,2.16,2.54,2.16,2.54C231.92,165.34,232.18,165.66,232.43,165.99z"/>
		<g>
			<path class="st1" d="M216.82,169.17c-13.02-7.64-12.21-20.74-8.63-29.34c-5.89,4.07-8.01,8.96-7.67,14.25
				C200.96,161.17,207.21,168.51,216.82,169.17"/>
			<path class="st1" d="M218.78,169.35c0,0-15.92-8.13-8.23-28.67c2.17-5.8,3.04-11.3,0.6-17.67c0,0,14.64,3.8,8.67,18.01
				C216.34,149.31,210.43,160.63,218.78,169.35"/>
			<path class="st1" d="M223.54,134.18c8.52,9.64,3.47,18.94-0.2,22.41c5.28-2.84,5.55-8.56,5.55-8.56
				c3.84,12.29-9.89,14.17-8.79,20.45c-5.06-5.85-3.61-12.77-0.22-19.19C221.77,145.71,225.98,140.27,223.54,134.18"/>
		</g>
		<path class="st0" d="M212.7,242.63c-27.1,0-49.15-21.9-49.15-48.82c0-10.78,3.47-21,10.02-29.55
			c6.34-8.28,15.34-14.43,25.34-17.33l0.92-0.24c0,0-0.18,0.41-0.61,1.99c-9.57,2.81-18.18,8.72-24.25,16.65
			c-6.32,8.24-9.66,18.09-9.66,28.48c0,25.95,21.26,47.06,47.38,47.06s47.38-21.11,47.38-47.06c0-8.82-2.47-17.42-7.15-24.87
			c-4.55-7.25-11-13.13-18.64-17.03c-0.61-0.31-1.24-0.61-1.86-0.9l-0.15-1.98l0.88,0.37c0.65,0.29,1.3,0.61,1.93,0.93
			c7.93,4.04,14.61,10.14,19.33,17.66c4.86,7.73,7.42,16.66,7.42,25.81C261.85,220.73,239.8,242.63,212.7,242.63z"/>
		<path class="st0" d="M184.52,249.11c-0.09-0.38-0.57-0.84-0.67-1.23c-0.26-1.04-0.42-1.28-0.49-1.63
			c-0.13-0.74,1.35,0.15,1.52-3.12c0.09-1.68-0.86-2.2-1.63-2.2c-2.15,0.01-2.14,4.7-0.5,5c0.52,0.1,0.69,2.01,1.14,2.9
			c-1.64-0.77-3.27-1.68-4.89-2.72c0.23-0.09,0.33-0.54,0.2-1.54c-0.08-0.59-0.06-1.19-0.18-1.77c-1.04-5.19-2.08-10.37-3.11-15.56
			c-1.61,2.68-1.48,5.68-1.25,9.15c0.13,2.03,0.53,4.17,1.34,6.11c0.2,0.48,1.1,1.96,1.9,2.88c-2.65-1.8-5.24-3.93-7.7-6.31
			c0.01-0.05,0.5-2.05-0.03-5.51c-0.69-4.52-1.71-8.99-2.57-13.49c-1.64,2.11-1.45,4.91-1.58,7.8c-0.12,2.74,0.08,5.83,1.36,8.29
			c-2.43-2.67-4.7-5.58-6.71-8.65l0.26-0.14c0.78-0.15,1.35-0.89,1.59-1.72c0.25-0.83,0.23-1.75,0.21-2.64
			c-0.09-4.1-0.17-8.2-0.26-12.29c-4.09,7.85-3.4,12.94-2.27,16.07c-2.28-3.58-4.22-7.37-5.69-11.24c0.07-0.36-0.03-0.93,0.09-1.26
			c0.36-0.95,0.35-1.24,0.49-1.55c0.29-0.64,1.04,1.05,2.99-1.25c1-1.18,0.5-2.22-0.15-2.75c-1.8-1.48-4.38,1.99-3.17,3.35
			c0.34,0.38-0.34,1.62-0.57,2.58c-1.18-3.27-2.01-6.58-2.44-9.87c0.51-0.48,3.13-2.93,3.58-3.56c0.83-1.16,1.53-2.44,2.39-3.57
			c0.49-0.64,1.08-1.18,1.69-1.69c0.31-0.26,0.62-0.51,0.92-0.77c0.15-0.13,0.3-0.26,0.45-0.4c0.11-0.1,0.33-0.24,0.36-0.39
			c-0.36-0.1-0.81-0.04-1.17-0.02c-0.4,0.02-0.8,0.07-1.19,0.15c-0.78,0.16-1.54,0.42-2.25,0.79c-0.92,0.47-1.78,1.09-2.48,1.9
			c-1.61,1.88-2.31,3.47-2.59,4.71c-0.27-3.78-0.3-7.33-0.09-10.66c0.23,0.5,0.76,0.69,1.61,0.23c1.22-0.66,2.33-1.57,3.26-2.65
			c0.94-1.09,1.72-2.35,2.28-3.74c0.28-0.68,0.51-1.39,0.68-2.12c0.09-0.4,0.11-2.03,0.34-2.25c-2,1.93-4,3.86-6,5.79
			c-0.75,0.72-1.51,1.47-1.97,2.46c-0.01,0.02-0.02,0.04-0.03,0.06c0.32-3.17,0.9-6.13,1.72-8.91c0.28-0.14,0.52-0.7,0.81-0.87
			c0.76-0.43,0.9-0.63,1.17-0.76c0.55-0.26,0.22,1.03,2.91,0.93c0.97-0.04,1.52-1.21,1.3-1.96c-0.61-2.08-4.35-1.26-4.13,0.39
			c0.06,0.48-1.17,0.93-1.82,1.46c0.9-2.84,2.09-5.48,3.57-7.94c0,0,0,0.01,0,0.01s2.88-2.76,3.58-3.92
			c1.4-2.33,3.83-5.61,3.32-6.89c-0.19-0.47-2.8,1.49-4.62,3.46c-0.81,0.87-2.07,2.95-2.33,4.2c-0.27,1.36-0.18,2.25-0.08,2.73
			c-1.37,2.18-2.51,4.51-3.43,6.98c0.21-1.43,0.22-2.87,0.23-4.5c0.01-2.55-0.19-7.19-2.2-8.59c-0.19-0.13-0.84,5.03-0.89,5.38
			c-0.22,1.54-0.49,3.52-0.27,5.1c0.17,1.23,1.44,5.42,2.2,5.44c-0.84,2.88-1.41,5.93-1.72,9.15c-0.12-1.32-0.33-2.64-0.63-3.94
			c-0.4-1.72-0.94-3.39-1.63-4.98c-0.35-0.81-0.73-1.6-1.15-2.35c-0.2-0.37-1.25-1.68-1.26-2.04c0.02,3.02,0.05,6.08,0.7,9.06
			c0.41,1.9,1.11,3.78,2.11,5.35c0.34,0.53,0.92,1.51,1.43,1.78c0.09,0.05,0.16,0.07,0.23,0.08c-0.11,2.51-0.08,5.12,0.11,7.82
			c-0.5-1-1.64-2.33-1.4-2.78c0.82-1.57-2.58-4.87-3.97-3.12c-0.5,0.63-0.44,1.94,0.42,2.82c2.47,2.51,2.91,0.37,3.4,1.02
			c0.24,0.31,0.31,0.62,0.96,1.59c0.28,0.42,0.31,1.3,0.63,1.56c0.02-0.01,0.03-0.03,0.04-0.04c0.04,0.52,0.08,1.05,0.14,1.58
			c0.2,2.01,0.53,4.02,0.98,6.01c0.12,0.53,0.25,1.06,0.39,1.59c-0.38-0.97-0.8-1.9-1.25-2.53c-2.59-3.65-5.19-7.3-7.78-10.95
			c0.37,0.52,0.34,2.39,0.48,3.08c0.22,1.08,0.49,2.15,0.81,3.2c0.63,2.08,1.31,4.2,2.44,6.03c3.32,5.36,6.25,5.47,6.61,5.46
			c0.88,2.51,1.92,4.95,3.12,7.3c0.94,1.85,1.97,3.64,3.08,5.38c-0.89-0.98-2.62-2.66-6-5.37c-1.74-1.39-4.93-5.54-6.9-6.38
			c0.23,2.99,2.61,6.76,4.5,9.02c1.22,1.46,2.77,2.49,4.35,3.39c3.34,1.89,4.61,0.92,4.9,0.62c1.14,1.69,2.34,3.33,3.62,4.9
			c0.04,0.05,0.08,0.09,0.12,0.14c-0.33,0.09-0.72,0.32-1.03,0.31c-1.04-0.04-1.29,0.07-1.65,0.03c-0.73-0.08,0.38-1.44-2.71-2.64
			c-1.59-0.62-2.26,0.26-2.39,1.12c-0.36,2.37,4.11,3.82,4.69,2.1c0.22-0.65,2.81,0.06,3.38-0.57c1.91,2.3,3.95,4.46,6.12,6.44
			c-0.85-0.33-2.3-0.73-4.71-1.02c-3.31-0.39-11.13-2.64-11.32-2.26c-0.46,0.94,4.61,5.1,12.5,6.31c3.2,0.49,4.27-1.37,4.56-2.11
			c0.56,0.49,1.13,0.97,1.7,1.44c0.9,0.73,1.82,1.43,2.76,2.1c-0.86-0.15-2.53,0.5-2.82,0.02c-0.9-1.47-4.58,0.36-3.73,2.44
			c0.31,0.75,1.1,1.45,2.38,0.71c2.5-1.45,1.21-2.53,1.84-2.69c0.31-0.08,0.56-0.01,1.48-0.17c0.39-0.07,1.05,0.3,1.35,0.12
			c-0.01-0.04-0.02-0.07-0.04-0.11c1.5,1.05,3.05,2.02,4.64,2.88l-0.15-0.04c-1.29-0.25-2.26-0.46-3.29-0.11
			c-1.04,0.35-1.97,0.97-2.93,1.5c-2.19,1.2-4.63,1.89-7.13,2.04c2.18,2.35,5.44,3.14,8.21,2.39c2.68-0.72,4.91-2.7,6.49-5.16
			c0.3,0.15,0.61,0.31,0.91,0.45c0.97,0.46,1.96,0.87,2.96,1.24c-0.85,0.18-1.9,0.8-2.3,0.57c-1.4-0.83-3.75,3.2-2.12,4.62
			c0.59,0.51,1.82,0.28,2.48-1.23c1.12-2.55-0.2-2.62,0.31-3.06c0.55-0.48,1-0.18,1.71-0.31c0.34-0.06,0.55-0.1,0.81-0.26
			c0.36,0.12,0.72,0.24,1.09,0.35c1.11,0.33,12.11,2.78,19.22,4.04c0.05-0.4,0.14-0.79,0.27-1.17
			C200.85,253.29,187.17,250.29,184.52,249.11z"/>
		<path class="st0" d="M274.25,207.43c-0.43,0.64-0.84,1.58-1.2,2.55c0.13-0.53,0.25-1.06,0.35-1.59c0.41-1.99,0.7-4.01,0.86-6.03
			c0.04-0.53,0.07-1.06,0.1-1.58c0.02,0.01,0.02,0.03,0.04,0.04c0.32-0.27,0.33-1.16,0.6-1.58c0.62-0.98,0.7-1.29,0.92-1.61
			c0.47-0.66,0.96,1.46,3.38-1.09c0.85-0.9,0.88-2.21,0.37-2.83c-1.43-1.73-4.76,1.64-3.9,3.2c0.25,0.45-0.86,1.8-1.34,2.81
			c0.13-2.7,0.11-5.31-0.05-7.82c0.06-0.01,0.14-0.04,0.23-0.09c0.5-0.28,1.06-1.26,1.39-1.8c0.98-1.59,1.63-3.48,2-5.4
			c0.59-3,0.55-6.06,0.52-9.08c0,0.36-1.02,1.69-1.22,2.06c-0.4,0.77-0.77,1.56-1.1,2.38c-0.65,1.61-1.17,3.29-1.53,5.02
			c-0.27,1.3-0.46,2.63-0.55,3.95c-0.37-3.21-1-6.25-1.9-9.12c0.76-0.03,1.94-4.25,2.09-5.48c0.19-1.58-0.13-3.55-0.37-5.09
			c-0.06-0.35-0.82-5.5-1-5.36c-1.98,1.45-2.09,6.08-2.02,8.64c0.04,1.63,0.08,3.07,0.32,4.5c-0.97-2.45-2.15-4.76-3.57-6.91
			c0.1-0.48,0.17-1.38-0.13-2.73c-0.28-1.25-1.59-3.29-2.41-4.15c-1.86-1.93-4.51-3.83-4.69-3.36c-0.49,1.28,2.01,4.52,3.45,6.82
			c0.71,1.14,3.66,3.85,3.66,3.85s0,0,0-0.01c1.52,2.43,2.77,5.04,3.73,7.86c-0.67-0.52-1.91-0.94-1.85-1.42
			c0.19-1.65-3.57-2.39-4.14-0.3c-0.21,0.75,0.36,1.92,1.34,1.93c2.69,0.05,2.34-1.24,2.89-0.99c0.27,0.12,0.42,0.32,1.18,0.73
			c0.3,0.16,0.55,0.72,0.83,0.85c0.88,2.76,1.51,5.71,1.9,8.87c-0.01-0.02-0.02-0.04-0.03-0.06c-0.48-0.98-1.26-1.71-2.02-2.42
			c-2.04-1.89-4.08-3.78-6.11-5.67c0.23,0.22,0.29,1.84,0.39,2.24c0.19,0.73,0.43,1.43,0.72,2.11c0.6,1.38,1.4,2.63,2.36,3.69
			c0.96,1.06,2.08,1.96,3.32,2.59c0.86,0.44,1.38,0.24,1.61-0.26c0.28,3.32,0.32,6.87,0.13,10.66c-0.3-1.24-1.04-2.82-2.68-4.66
			c-0.71-0.8-1.59-1.39-2.51-1.85c-0.72-0.35-1.48-0.6-2.27-0.74c-0.39-0.07-0.79-0.11-1.19-0.13c-0.36-0.01-0.81-0.07-1.17,0.04
			c0.03,0.16,0.26,0.29,0.37,0.39c0.15,0.13,0.31,0.26,0.46,0.39c0.31,0.25,0.63,0.5,0.94,0.75c0.61,0.5,1.22,1.02,1.72,1.65
			c0.89,1.11,1.61,2.38,2.47,3.52c0.47,0.63,3.14,3.03,3.66,3.49c-0.36,3.3-1.13,6.63-2.24,9.92c-0.25-0.95-0.96-2.18-0.63-2.56
			c1.18-1.39-1.46-4.8-3.24-3.29c-0.64,0.54-1.12,1.59-0.1,2.76c1.99,2.26,2.7,0.56,3.01,1.19c0.15,0.31,0.15,0.59,0.52,1.53
			c0.13,0.32,0.04,0.89,0.12,1.25c-1.39,3.9-3.25,7.73-5.46,11.35c1.06-3.15,1.65-8.26-2.6-16.02c0,4.1,0,8.2-0.01,12.3
			c0,0.9,0,1.81,0.27,2.64c0.26,0.82,0.85,1.55,1.63,1.68l0.26,0.13c-1.95,3.11-4.15,6.07-6.53,8.79c1.22-2.49,1.37-5.58,1.19-8.32
			c-0.19-2.88-0.06-5.69-1.74-7.77c-0.76,4.51-1.69,9.01-2.29,13.54c-0.46,3.47,0.07,5.46,0.08,5.51c-2.41,2.44-4.96,4.62-7.57,6.47
			c0.79-0.93,1.65-2.43,1.84-2.91c0.77-1.96,1.12-4.1,1.21-6.14c0.16-3.47,0.23-6.47-1.44-9.12c-0.93,5.21-1.86,10.41-2.8,15.62
			c-0.11,0.59-0.08,1.18-0.15,1.78c-0.11,1,0,1.45,0.23,1.53c-1.6,1.07-3.21,2.02-4.83,2.82c0.44-0.89,0.56-2.82,1.08-2.92
			c1.64-0.33,1.55-5.02-0.6-4.99c-0.77,0.01-1.7,0.55-1.58,2.23c0.24,3.27,1.7,2.35,1.58,3.08c-0.06,0.36-0.22,0.6-0.45,1.64
			c-0.09,0.4-0.56,0.87-0.64,1.25c-2.5,1.18-15.02,4.22-22.41,5.73c0.13,0.37,0.23,0.76,0.28,1.17c7.06-1.45,17.07-3.89,18.12-4.22
			c0.36-0.11,0.72-0.24,1.08-0.37c0.26,0.16,0.48,0.19,0.82,0.25c0.71,0.12,1.15-0.19,1.71,0.28c0.52,0.43-0.8,0.52,0.37,3.05
			c0.7,1.5,1.93,1.7,2.51,1.18c1.6-1.44-0.83-5.43-2.21-4.57c-0.39,0.25-1.46-0.35-2.31-0.52c0.99-0.39,1.97-0.82,2.93-1.3
			c0.3-0.15,0.6-0.31,0.91-0.47c1.63,2.43,3.9,4.37,6.6,5.03c2.79,0.68,6.04-0.16,8.16-2.56c-2.5-0.1-4.95-0.75-7.17-1.9
			c-0.98-0.51-1.92-1.11-2.96-1.44c-1.05-0.33-2.01-0.1-3.29,0.18l-0.15,0.04c1.57-0.89,3.1-1.89,4.58-2.98
			c-0.01,0.03-0.03,0.07-0.03,0.11c0.3,0.17,0.96-0.21,1.35-0.15c0.92,0.14,1.17,0.07,1.48,0.14c0.64,0.15-0.64,1.25,1.9,2.65
			c1.3,0.72,2.08-0.01,2.37-0.76c0.81-2.1-2.91-3.85-3.78-2.36c-0.28,0.49-1.97-0.13-2.82,0.04c0.92-0.69,1.83-1.41,2.71-2.16
			c0.57-0.48,1.12-0.97,1.67-1.48c0.31,0.74,1.41,2.58,4.6,2.02c7.87-1.37,12.85-5.64,12.37-6.56c-0.19-0.37-7.97,2.03-11.27,2.49
			c-2.41,0.34-3.85,0.77-4.69,1.12c2.13-2.03,4.13-4.23,5.99-6.57c0.59,0.61,3.16-0.14,3.39,0.5c0.61,1.71,5.06,0.17,4.65-2.19
			c-0.15-0.85-0.83-1.72-2.41-1.07c-3.07,1.26-1.93,2.6-2.66,2.69c-0.35,0.05-0.61-0.06-1.65,0c-0.31,0.02-0.7-0.2-1.04-0.29
			c0.04-0.05,0.08-0.1,0.11-0.14c1.24-1.59,2.42-3.25,3.52-4.97c0.29,0.29,1.58,1.24,4.88-0.72c1.56-0.93,3.09-1.99,4.28-3.48
			c1.84-2.3,4.14-6.12,4.31-9.11c-1.95,0.88-5.06,5.09-6.77,6.52c-3.33,2.77-5.03,4.49-5.89,5.49c1.07-1.76,2.07-3.57,2.97-5.44
			c1.15-2.38,2.14-4.84,2.97-7.37c0.36,0,3.28-0.17,6.5-5.6c1.1-1.85,1.73-3.98,2.32-6.08c0.3-1.06,0.55-2.14,0.74-3.22
			c0.12-0.69,0.06-2.56,0.42-3.09C279.29,200.02,276.77,203.72,274.25,207.43z"/>
	</g>
</g>
</svg>
