<svg width="815" height="776" viewBox="0 0 815 776" fill="none" xmlns="http://www.w3.org/2000/svg">
<g clip-path="url(#clip0_12_2)">
<path d="M20.3754 771.405C13.5693 767.807 8.23713 762.821 4.37888 756.405C0.520639 750.032 -1.43018 742.836 -1.43018 734.859C-1.43018 726.882 0.520639 719.686 4.37888 713.313C8.23713 706.94 13.6126 701.955 20.3754 698.313C27.1815 694.715 34.8547 692.894 43.3515 692.894C51.8916 692.894 59.5214 694.715 66.3276 698.313C73.1337 701.911 78.4659 706.897 82.3241 713.313C86.1824 719.686 88.1331 726.882 88.1331 734.859C88.1331 742.836 86.1824 750.032 82.3241 756.405C78.4659 762.778 73.0903 767.763 66.3276 771.405C59.5214 775.003 51.8483 776.824 43.3515 776.824C34.8547 776.824 27.1815 775.046 20.3754 771.405ZM54.4493 755.061C57.744 753.154 60.3451 750.422 62.2959 746.954C64.2033 743.443 65.1571 739.454 65.1571 734.902C65.1571 730.35 64.2033 726.362 62.2959 722.85C60.3884 719.339 57.744 716.651 54.4493 714.744C51.1547 712.836 47.4698 711.882 43.3948 711.882C39.3198 711.882 35.635 712.836 32.3403 714.744C29.0456 716.651 26.4446 719.382 24.4938 722.85C22.5863 726.362 21.6326 730.35 21.6326 734.902C21.6326 739.454 22.5863 743.443 24.4938 746.954C26.4012 750.466 29.0456 753.154 32.3403 755.061C35.635 756.969 39.3198 757.922 43.3948 757.922C47.4265 757.922 51.1113 756.969 54.4493 755.061Z" fill="white"/>
<path d="M104.086 774.483C99.0142 773.312 94.9393 771.752 91.8613 769.801L98.4507 754.801C101.312 756.578 104.693 757.966 108.595 759.006C112.496 760.046 116.398 760.567 120.213 760.567C123.724 760.567 126.282 760.22 127.756 759.483C129.273 758.746 130.01 757.705 130.01 756.318C130.01 754.931 129.1 753.977 127.322 753.37C125.502 752.807 122.641 752.243 118.739 751.68C113.754 751.073 109.505 750.249 105.994 749.252C102.482 748.255 99.4911 746.391 96.9334 743.703C94.419 741.015 93.1185 737.243 93.1185 732.431C93.1185 728.443 94.289 724.888 96.6733 721.767C99.0576 718.645 102.526 716.218 107.121 714.397C111.673 712.576 117.178 711.709 123.551 711.709C128.103 711.709 132.568 712.186 137.033 713.096C141.498 714.007 145.226 715.307 148.218 716.998L141.628 731.868C136.079 728.79 130.097 727.272 123.638 727.272C120.17 727.272 117.655 727.663 116.051 728.486C114.447 729.31 113.624 730.35 113.624 731.651C113.624 733.125 114.491 734.122 116.268 734.686C118.045 735.249 120.95 735.856 125.025 736.463C130.184 737.243 134.432 738.11 137.813 739.107C141.195 740.105 144.143 741.925 146.614 744.57C149.128 747.214 150.342 750.943 150.342 755.668C150.342 759.57 149.128 763.081 146.787 766.202C144.403 769.324 140.891 771.751 136.253 773.529C131.614 775.306 126.022 776.173 119.476 776.173C114.317 776.26 109.158 775.653 104.086 774.483Z" fill="white"/>
<path d="M259.89 712.793L237.651 775.263H216.452L204.704 741.275L192.479 775.263H171.281L149.042 712.793H169.763L182.552 750.596L195.817 712.793H214.502L227.42 750.943L240.686 712.793H259.89Z" fill="white"/>
<path d="M312.432 718.819C317.894 723.544 320.625 730.784 320.625 740.538V775.22H300.25V767.156C297.085 773.225 290.973 776.26 281.826 776.26C276.971 776.26 272.809 775.393 269.254 773.746C265.699 772.055 263.055 769.757 261.234 766.896C259.413 764.035 258.546 760.74 258.546 757.055C258.546 751.159 260.801 746.564 265.353 743.269C269.904 740.018 276.884 738.371 286.334 738.371H298.776C298.386 731.781 293.964 728.443 285.511 728.443C282.52 728.443 279.485 728.92 276.407 729.873C273.329 730.827 270.728 732.171 268.56 733.862L261.191 718.992C264.659 716.695 268.864 714.917 273.806 713.616C278.748 712.359 283.733 711.709 288.719 711.709C299.08 711.752 306.97 714.093 312.432 718.819ZM294.571 760.61C296.479 759.396 297.866 757.575 298.733 755.191V749.772H289.282C282.91 749.772 279.702 751.896 279.702 756.101C279.702 758.009 280.439 759.57 281.913 760.697C283.387 761.867 285.381 762.431 287.895 762.431C290.409 762.431 292.664 761.824 294.571 760.61Z" fill="white"/>
<path d="M332.113 689.73H354.005V775.22H332.113V689.73Z" fill="white"/>
<path d="M432.254 689.73V775.22H411.402V768.977C407.327 773.832 401.215 776.217 393.065 776.217C387.386 776.217 382.183 774.873 377.501 772.228C372.82 769.584 369.091 765.812 366.404 760.87C363.673 755.971 362.329 750.249 362.329 743.833C362.329 737.417 363.673 731.694 366.404 726.839C369.135 721.94 372.82 718.212 377.501 715.611C382.183 713.01 387.386 711.709 393.065 711.709C400.521 711.709 406.287 713.877 410.362 718.169V689.686H432.254V689.73ZM407.024 754.888C409.495 752.243 410.708 748.558 410.708 743.876C410.708 739.281 409.495 735.639 407.067 733.038C404.639 730.437 401.518 729.137 397.66 729.137C393.801 729.137 390.68 730.437 388.209 733.038C385.738 735.639 384.524 739.281 384.524 743.876C384.524 748.558 385.738 752.243 388.209 754.888C390.68 757.532 393.801 758.876 397.66 758.876C401.475 758.876 404.553 757.532 407.024 754.888Z" fill="white"/>
<path d="M457.268 772.098C451.892 769.324 447.687 765.509 444.652 760.567C441.618 755.668 440.101 750.076 440.101 743.876C440.101 737.72 441.618 732.215 444.652 727.272C447.687 722.374 451.892 718.515 457.224 715.827C462.556 713.096 468.626 711.752 475.388 711.752C482.151 711.752 488.22 713.096 493.596 715.827C498.971 718.559 503.176 722.374 506.168 727.229C509.159 732.128 510.676 737.677 510.676 743.876C510.676 750.076 509.159 755.668 506.168 760.567C503.176 765.465 498.971 769.324 493.596 772.098C488.22 774.873 482.151 776.26 475.388 776.26C468.669 776.26 462.643 774.873 457.268 772.098ZM484.796 754.888C487.267 752.243 488.48 748.558 488.48 743.876C488.48 739.281 487.267 735.639 484.796 733.038C482.325 730.437 479.203 729.137 475.345 729.137C471.487 729.137 468.365 730.437 465.894 733.038C463.423 735.639 462.21 739.281 462.21 743.876C462.21 748.558 463.423 752.243 465.894 754.888C468.365 757.532 471.487 758.876 475.345 758.876C479.203 758.876 482.368 757.532 484.796 754.888Z" fill="white"/>
<path d="M568.16 771.491C561.44 767.937 556.151 762.951 552.337 756.578C548.478 750.206 546.571 742.966 546.571 734.902C546.571 726.839 548.478 719.599 552.337 713.226C556.195 706.854 561.44 701.868 568.16 698.313C574.879 694.758 582.465 692.938 590.919 692.938C598.289 692.938 604.921 694.238 610.86 696.839C616.756 699.44 621.698 703.212 625.6 708.111L611.077 721.246C605.832 714.96 599.502 711.796 592.046 711.796C587.668 711.796 583.766 712.75 580.341 714.657C576.917 716.565 574.272 719.296 572.408 722.764C570.544 726.275 569.59 730.264 569.59 734.816C569.59 739.368 570.544 743.356 572.408 746.867C574.272 750.379 576.96 753.067 580.341 754.974C583.766 756.882 587.668 757.836 592.046 757.836C599.502 757.836 605.832 754.671 611.077 748.385L625.6 761.52C621.698 766.419 616.756 770.191 610.86 772.792C604.965 775.393 598.289 776.694 590.919 776.694C582.465 776.824 574.879 775.046 568.16 771.491Z" fill="white"/>
<path d="M661.971 713.877C665.526 712.446 669.644 711.752 674.24 711.752V731.478C672.245 731.261 670.598 731.131 669.298 731.131C664.616 731.131 660.931 732.388 658.286 734.946C655.642 737.503 654.298 741.362 654.298 746.564V775.263H632.406V712.793H653.258V720.293C655.512 717.431 658.373 715.307 661.971 713.877Z" fill="white"/>
<path d="M746.853 712.793V775.263H726.001V768.587C723.703 771.101 720.929 773.052 717.721 774.353C714.513 775.653 711.088 776.304 707.447 776.304C699.383 776.304 692.967 773.919 688.155 769.15C683.343 764.382 680.959 757.229 680.959 747.735V712.836H702.851V744.18C702.851 748.862 703.718 752.286 705.496 754.454C707.273 756.622 709.831 757.662 713.212 757.662C716.68 757.662 719.498 756.448 721.666 754.021C723.877 751.593 724.96 747.908 724.96 742.922V712.836H746.853V712.793Z" fill="white"/>
<path d="M812.963 758.876V775.22H755.349V762.301L784.264 729.007H756.13V712.75H811.792V725.538L782.877 758.833H812.963V758.876Z" fill="white"/>
<path d="M251.437 676.291H245.324V633.372H275.627V638.704H251.437V676.291ZM250.83 653.661H272.982V658.95H250.83V653.661Z" fill="white"/>
<path d="M288.675 676.637C286.248 676.637 284.167 676.247 282.346 675.423C280.525 674.6 279.138 673.473 278.141 671.999C277.144 670.568 276.667 668.921 276.667 667.057C276.667 665.279 277.1 663.718 277.924 662.288C278.748 660.857 280.135 659.73 282.042 658.863C283.95 657.996 286.508 657.562 289.759 657.562H300.077V661.811H290.019C287.071 661.811 285.077 662.288 284.08 663.285C283.04 664.282 282.563 665.453 282.563 666.84C282.563 668.444 283.213 669.701 284.47 670.655C285.727 671.609 287.505 672.085 289.759 672.085C291.97 672.085 293.877 671.609 295.568 670.611C297.215 669.614 298.429 668.184 299.166 666.32L300.337 670.351C299.556 672.259 298.169 673.776 296.218 674.903C294.137 676.074 291.666 676.637 288.675 676.637ZM299.34 676.291V669.441L299.036 668.14V656.435C299.036 653.921 298.299 652.013 296.869 650.626C295.438 649.239 293.227 648.589 290.323 648.589C288.415 648.589 286.508 648.892 284.687 649.542C282.866 650.193 281.306 651.016 280.005 652.1L277.534 647.678C279.225 646.334 281.219 645.294 283.56 644.6C285.901 643.907 288.372 643.516 290.973 643.516C295.438 643.516 298.863 644.6 301.29 646.768C303.718 648.935 304.889 652.23 304.889 656.695V676.291H299.34Z" fill="white"/>
<path d="M326.954 676.637C323.659 676.637 320.668 675.944 318.111 674.47C315.509 673.039 313.472 671.088 311.998 668.574C310.524 666.059 309.787 663.198 309.787 659.99C309.787 656.782 310.524 653.878 311.998 651.407C313.472 648.892 315.509 646.941 318.111 645.554C320.712 644.123 323.659 643.43 326.954 643.43C329.902 643.43 332.546 643.993 334.844 645.164C337.142 646.334 338.962 648.068 340.22 650.366L335.754 653.271C334.671 651.667 333.413 650.496 331.853 649.759C330.335 649.022 328.688 648.632 326.911 648.632C324.787 648.632 322.879 649.109 321.188 650.063C319.498 651.016 318.197 652.317 317.2 654.008C316.203 655.698 315.726 657.736 315.726 660.034C315.726 662.331 316.203 664.369 317.2 666.103C318.197 667.837 319.498 669.137 321.188 670.091C322.879 671.045 324.787 671.522 326.911 671.522C328.688 671.522 330.335 671.132 331.853 670.395C333.37 669.658 334.671 668.444 335.754 666.883L340.22 669.701C338.962 671.955 337.142 673.689 334.844 674.903C332.503 676.03 329.902 676.637 326.954 676.637Z" fill="white"/>
<path d="M358.427 676.637C355.653 676.637 353.182 676.117 351.101 675.12C348.977 674.08 347.373 672.519 346.202 670.438C345.032 668.314 344.468 665.669 344.468 662.505V643.777H350.364V661.811C350.364 665.019 351.144 667.403 352.662 669.007C354.179 670.611 356.346 671.392 359.121 671.392C361.158 671.392 362.936 670.958 364.453 670.134C365.97 669.311 367.141 668.054 367.965 666.45C368.788 664.846 369.178 662.895 369.178 660.597V643.777H375.074V676.291H369.482V667.533L370.392 669.874C369.308 672.042 367.748 673.733 365.624 674.903C363.456 676.074 361.072 676.637 358.427 676.637Z" fill="white"/>
<path d="M383.181 676.291V630.771H389.076V676.291H383.181Z" fill="white"/>
<path d="M410.665 676.637C407.501 676.637 404.726 675.944 402.212 674.556C399.741 673.169 397.79 671.218 396.359 668.747C394.929 666.233 394.192 663.328 394.192 660.034C394.192 656.739 394.886 653.834 396.359 651.363C397.79 648.892 399.741 646.941 402.212 645.554C404.683 644.167 407.501 643.473 410.665 643.473C413.396 643.473 415.867 644.08 418.078 645.294C420.289 646.508 422.067 648.372 423.367 650.8C424.711 653.271 425.361 656.305 425.361 659.99C425.361 663.675 424.711 666.753 423.411 669.181C422.11 671.652 420.376 673.473 418.165 674.73C415.998 676.03 413.483 676.637 410.665 676.637ZM411.142 671.479C413.18 671.479 415.044 671.002 416.691 670.048C418.338 669.094 419.639 667.75 420.636 666.016C421.59 664.282 422.067 662.244 422.067 659.99C422.067 657.649 421.59 655.655 420.636 653.964C419.682 652.274 418.382 650.93 416.691 650.019C415.044 649.065 413.18 648.589 411.142 648.589C409.061 648.589 407.197 649.065 405.55 650.019C403.903 650.973 402.602 652.274 401.605 653.964C400.608 655.655 400.131 657.692 400.131 659.99C400.131 662.288 400.608 664.282 401.605 666.016C402.602 667.75 403.903 669.094 405.55 670.048C407.197 671.045 409.061 671.479 411.142 671.479ZM422.24 676.291V667.533L422.587 659.99L421.98 652.447V630.814H427.876V676.291H422.24Z" fill="white"/>
<path d="M445.519 676.637C443.092 676.637 441.011 676.247 439.19 675.423C437.369 674.6 435.982 673.473 434.985 671.999C433.988 670.568 433.511 668.921 433.511 667.057C433.511 665.279 433.945 663.718 434.768 662.288C435.592 660.857 436.979 659.73 438.887 658.863C440.794 657.996 443.352 657.562 446.603 657.562H456.921V661.811H446.863C443.915 661.811 441.921 662.288 440.924 663.285C439.884 664.282 439.407 665.453 439.407 666.84C439.407 668.444 440.057 669.701 441.314 670.655C442.572 671.609 444.349 672.085 446.603 672.085C448.814 672.085 450.722 671.609 452.412 670.611C454.06 669.614 455.273 668.184 456.01 666.32L457.181 670.351C456.401 672.259 455.013 673.776 453.063 674.903C450.982 676.074 448.511 676.637 445.519 676.637ZM456.184 676.291V669.441L455.88 668.14V656.435C455.88 653.921 455.143 652.013 453.713 650.626C452.282 649.239 450.071 648.589 447.167 648.589C445.259 648.589 443.352 648.892 441.531 649.542C439.71 650.193 438.15 651.016 436.849 652.1L434.378 647.678C436.069 646.334 438.063 645.294 440.404 644.6C442.745 643.907 445.216 643.516 447.817 643.516C452.282 643.516 455.707 644.6 458.135 646.768C460.562 648.935 461.733 652.23 461.733 656.695V676.291H456.184Z" fill="white"/>
<path d="M483.061 676.637C479.897 676.637 477.122 675.944 474.608 674.556C472.137 673.169 470.186 671.218 468.755 668.747C467.325 666.233 466.588 663.328 466.588 660.034C466.588 656.739 467.282 653.834 468.755 651.363C470.186 648.892 472.137 646.941 474.608 645.554C477.079 644.167 479.897 643.473 483.061 643.473C485.792 643.473 488.263 644.08 490.474 645.294C492.685 646.508 494.463 648.372 495.763 650.8C497.107 653.271 497.757 656.305 497.757 659.99C497.757 663.675 497.107 666.753 495.806 669.181C494.506 671.652 492.772 673.473 490.561 674.73C488.393 676.03 485.879 676.637 483.061 676.637ZM483.538 671.479C485.576 671.479 487.44 671.002 489.087 670.048C490.734 669.094 492.035 667.75 493.032 666.016C493.986 664.282 494.463 662.244 494.463 659.99C494.463 657.649 493.986 655.655 493.032 653.964C492.078 652.274 490.778 650.93 489.087 650.019C487.44 649.065 485.576 648.589 483.538 648.589C481.457 648.589 479.593 649.065 477.946 650.019C476.299 650.973 474.998 652.274 474.001 653.964C473.004 655.655 472.527 657.692 472.527 659.99C472.527 662.288 473.004 664.282 474.001 666.016C474.998 667.75 476.299 669.094 477.946 670.048C479.593 671.045 481.457 671.479 483.538 671.479ZM494.636 676.291V667.533L494.983 659.99L494.376 652.447V630.814H500.272V676.291H494.636Z" fill="white"/>
<path d="M522.858 676.637C519.39 676.637 516.312 675.944 513.667 674.47C511.023 673.039 508.985 671.088 507.555 668.574C506.124 666.059 505.387 663.198 505.387 659.99C505.387 656.782 506.081 653.878 507.511 651.407C508.942 648.892 510.849 646.941 513.32 645.554C515.791 644.123 518.566 643.43 521.687 643.43C524.852 643.43 527.626 644.123 530.011 645.511C532.438 646.898 534.302 648.849 535.69 651.363C537.077 653.878 537.727 656.825 537.727 660.164C537.727 660.424 537.727 660.684 537.684 661.031C537.684 661.377 537.64 661.681 537.597 661.941H509.939V657.692H534.519L532.135 659.166C532.178 657.086 531.745 655.221 530.834 653.574C529.924 651.927 528.71 650.67 527.106 649.759C525.502 648.849 523.681 648.372 521.601 648.372C519.563 648.372 517.742 648.849 516.138 649.759C514.534 650.67 513.277 651.97 512.41 653.617C511.5 655.265 511.066 657.172 511.066 659.296V660.294C511.066 662.461 511.586 664.412 512.583 666.103C513.581 667.793 514.968 669.137 516.789 670.048C518.609 671.002 520.647 671.479 522.988 671.479C524.895 671.479 526.673 671.132 528.233 670.481C529.794 669.831 531.181 668.834 532.395 667.533L535.646 671.348C534.172 673.082 532.352 674.383 530.141 675.293C528.016 676.204 525.545 676.637 522.858 676.637Z" fill="white"/>
<path d="M552.163 676.637C549.475 676.637 546.917 676.29 544.446 675.553C542.019 674.816 540.111 673.906 538.724 672.866L541.195 668.184C542.582 669.137 544.316 669.918 546.354 670.568C548.391 671.218 550.472 671.565 552.596 671.565C555.328 671.565 557.322 671.175 558.536 670.395C559.749 669.614 560.356 668.531 560.356 667.143C560.356 666.103 559.966 665.322 559.272 664.759C558.536 664.195 557.582 663.762 556.368 663.458C555.154 663.155 553.81 662.938 552.336 662.678C550.862 662.461 549.388 662.158 547.915 661.811C546.441 661.464 545.097 660.987 543.883 660.337C542.669 659.687 541.672 658.82 540.935 657.692C540.198 656.565 539.851 655.048 539.851 653.184C539.851 651.233 540.415 649.499 541.499 648.025C542.582 646.551 544.186 645.424 546.181 644.6C548.218 643.82 550.602 643.386 553.377 643.386C555.501 643.386 557.669 643.646 559.836 644.167C562.004 644.687 563.824 645.424 565.212 646.334L562.697 651.016C561.223 650.019 559.706 649.369 558.102 648.979C556.498 648.632 554.894 648.415 553.333 648.415C550.776 648.415 548.825 648.849 547.568 649.672C546.311 650.496 545.66 651.58 545.66 652.88C545.66 653.964 546.05 654.831 546.787 655.438C547.524 656.045 548.521 656.479 549.735 656.826C550.949 657.172 552.293 657.432 553.767 657.649C555.241 657.866 556.715 658.169 558.189 658.516C559.663 658.863 561.007 659.34 562.22 659.947C563.434 660.554 564.388 661.421 565.168 662.505C565.905 663.588 566.295 665.062 566.295 666.926C566.295 668.877 565.732 670.568 564.561 671.999C563.434 673.429 561.787 674.556 559.706 675.337C557.582 676.247 555.067 676.637 552.163 676.637Z" fill="white"/>
<path d="M415.607 478.302C412.313 478.302 409.061 477.088 406.634 474.704C396.013 464.126 385.435 453.505 374.814 442.884C370.305 438.375 369.829 430.528 373.73 425.369C376.852 421.251 380.536 417.696 384.048 414.315C385.825 412.581 387.689 410.803 389.38 409.026C390.767 407.595 391.504 405.818 391.417 404.084C391.374 402.566 390.68 401.136 389.423 400.009C383.094 394.243 375.854 389.214 368.875 384.358L368.788 384.272C362.892 380.197 360.291 375.168 360.595 368.492C360.768 364.547 360.768 360.515 360.725 356.57C360.682 353.839 360.682 351.021 360.725 348.246C358.167 346.989 355.609 345.689 353.095 344.475C351.274 343.564 349.497 342.654 347.676 341.744C341.477 338.666 340.003 334.027 339.96 330.472L339.7 329.605V318.594L335.018 316.99C329.642 315.125 324.267 313.305 318.848 311.484C311.868 309.143 308.443 304.461 308.443 297.134C308.443 296.051 308.443 294.967 308.4 293.883C308.4 292.192 308.357 290.458 308.4 288.681C301.984 291.932 295.482 295.183 289.196 298.305L287.462 299.172C280.179 302.77 275.323 301.99 269.514 296.137L262.188 288.811C255.599 282.221 248.749 275.372 242.03 268.695C239.515 266.224 237.608 263.667 236.221 260.979L235.787 260.155V252.395L236.264 251.528C238.822 246.976 242.376 243.508 245.801 240.17L245.931 240.04C247.622 238.392 249.269 236.745 250.917 235.098L266.74 219.231L266.913 199.506C266.913 199.029 266.913 198.552 266.913 198.075C266.913 195.647 266.87 192.916 267.824 190.098C271.292 179.737 277.708 173.408 286.941 171.24C294.831 169.419 302.071 170.373 308.4 174.058C310.741 175.445 312.995 174.925 314.123 174.492C316.16 173.711 317.851 172.064 318.501 170.113C318.891 168.943 318.848 167.555 318.761 165.995C318.718 165.214 318.718 164.434 318.718 163.697C318.804 158.061 321.189 153.683 325.654 150.952C327.518 149.824 329.512 149.217 331.289 148.654C331.896 148.48 332.503 148.307 333.067 148.09L335.581 155.33C334.888 155.547 334.237 155.764 333.544 155.98C332.07 156.414 330.683 156.847 329.642 157.498C328.298 158.321 326.478 159.882 326.391 163.784C326.391 164.391 326.391 165.041 326.434 165.648C326.521 167.685 326.608 170.026 325.741 172.584C324.353 176.703 321.015 180.084 316.767 181.688C312.692 183.205 308.227 182.859 304.499 180.691C299.86 177.96 294.658 177.353 288.632 178.74C281.999 180.257 277.708 184.636 275.063 192.526C274.543 194.13 274.543 195.907 274.543 198.032C274.543 198.552 274.543 199.072 274.543 199.592L274.326 222.439L256.292 240.517C254.601 242.207 252.954 243.898 251.22 245.546L251.09 245.676C248.142 248.537 245.368 251.225 243.374 254.476V258.291C244.371 259.982 245.628 261.629 247.319 263.276C254.081 269.953 260.931 276.802 267.52 283.435L274.846 290.762C278.314 294.23 279.702 294.49 283.993 292.322L285.728 291.455C292.88 287.9 300.293 284.215 307.49 280.531C308.617 279.967 311.305 278.58 313.819 280.184C316.333 281.788 316.16 284.952 316.117 285.95C315.987 288.507 316.03 291.065 316.03 293.796C316.03 294.88 316.073 296.007 316.073 297.091C316.073 301.079 317.374 302.9 321.275 304.157C326.694 305.978 332.07 307.842 337.489 309.663L343.905 311.874C346.029 312.134 346.939 313.608 347.156 314.128C347.373 314.562 347.893 315.819 347.329 317.336V328.478L347.589 329.432V330.038C347.546 331.859 348.066 333.42 351.014 334.851C352.835 335.761 354.656 336.671 356.476 337.582C358.947 338.839 361.505 340.139 364.02 341.353C366.924 342.741 368.355 345.082 368.268 348.333C368.225 351.021 368.225 353.795 368.268 356.483C368.311 360.515 368.355 364.677 368.138 368.838C367.964 372.827 369.308 375.385 373.037 377.986L373.123 378.072C380.32 383.058 387.776 388.26 394.452 394.329C397.227 396.844 398.787 400.225 398.917 403.78C399.047 407.595 397.573 411.323 394.755 414.271C392.935 416.179 391.027 418.043 389.163 419.82C385.695 423.158 382.4 426.367 379.626 430.008C378.065 432.089 378.239 435.687 380.016 437.465C390.594 448.086 401.215 458.664 411.792 469.285C413.873 471.323 417.645 471.062 420.116 468.678C429.263 459.704 438.497 450.427 447.384 441.453L450.765 438.072C452.196 436.641 452.889 434.777 452.889 432.392C452.889 429.965 452.933 427.537 452.976 425.109C452.976 424.286 453.019 423.419 453.019 422.595L452.716 421.641L452.759 420.904C454.32 402.176 468.669 388.173 486.833 387.61C489.608 387.523 491.905 386.526 493.856 384.619C506.471 371.916 519.39 359.041 531.831 346.599L533.262 345.168C535.3 343.174 536.21 340.876 536.21 337.929C536.21 333.593 536.21 329.258 536.21 324.88C536.21 318.203 536.21 311.354 536.167 304.548C536.123 301.47 537.12 299.085 539.245 297.004C543.146 293.189 547.091 289.244 550.906 285.429C553.984 282.351 557.019 279.273 560.14 276.239C564.952 271.47 567.379 265.617 567.293 258.768C567.163 248.407 561.05 239.129 551.686 235.184C544.533 232.193 537.467 228.855 530.574 225.647C526.803 223.87 522.901 222.049 519.043 220.315C512.714 217.453 507.121 214.852 501.833 212.425C490.345 207.136 480.374 202.54 466.632 196.645L469.666 189.622C483.495 195.561 493.509 200.156 505.041 205.488C510.329 207.916 515.878 210.474 522.208 213.335C526.109 215.112 530.054 216.933 533.826 218.711C540.632 221.875 547.655 225.17 554.634 228.118C566.816 233.234 574.792 245.242 574.966 258.681C575.053 267.655 571.888 275.415 565.559 281.658C562.481 284.692 559.446 287.77 556.412 290.805C552.597 294.663 548.652 298.608 544.707 302.467C544.1 303.074 543.926 303.42 543.926 304.461C543.97 311.267 543.97 318.16 543.97 324.836C543.97 329.171 543.97 333.507 543.97 337.842C543.97 342.784 542.236 347.076 538.768 350.501L537.337 351.931C524.895 364.373 512.02 377.249 499.362 389.908C496.024 393.246 491.949 395.023 487.137 395.153C472.917 395.587 462.036 406.078 460.519 420.731L460.736 421.381V421.988C460.736 423.028 460.692 424.069 460.692 425.109C460.649 427.494 460.606 429.878 460.649 432.262C460.649 436.684 459.218 440.456 456.271 443.361L452.889 446.742C443.959 455.716 434.725 464.993 425.535 474.054C422.89 476.915 419.205 478.302 415.607 478.302Z" fill="white"/>
<path fill-rule="evenodd" clip-rule="evenodd" d="M359.554 216.413H474.521V220.835C474.521 234.447 465.201 244.202 451.849 250.141C447.73 250.921 442.702 251.701 436.849 252.438C442.051 254.259 446.69 254.823 450.765 254.693L450.158 259.852C449.638 264.013 449.508 268.869 439.32 268.869H394.799C384.611 268.869 384.524 264.013 383.961 259.852L382.834 250.531C369.178 244.635 359.554 234.708 359.554 220.618V216.413Z" fill="white"/>
<path fill-rule="evenodd" clip-rule="evenodd" d="M419.162 473.317V473.794C418.208 473.88 417.385 473.924 416.648 473.88C415.911 473.924 415.044 473.88 414.133 473.794V473.317C410.969 471.843 410.752 467.291 409.841 457.58L399.307 281.614H419.942V339.706C419.812 342.697 422.5 343.868 422.717 339.706L426.792 281.614H434.031L423.497 457.58C422.587 467.291 422.327 471.843 419.162 473.317Z" fill="white"/>
<path d="M608.649 244.895C606.612 238.956 604.314 233.147 601.67 227.424H601.713L600.846 225.604L600.803 225.474L600.673 224.997C598.939 220.011 596.944 215.156 594.734 210.344C584.98 191.269 572.408 173.928 557.538 158.755C541.325 142.194 522.381 128.278 501.442 117.787C501.485 118.524 501.485 119.305 501.529 120.042C501.572 120.042 501.572 120.085 501.615 120.085C503.306 120.995 504.997 121.906 506.644 122.816C507.641 123.423 508.638 124.03 509.679 124.68C511.153 125.547 512.627 126.458 514.014 127.368C515.054 128.062 516.051 128.755 517.092 129.492C518.436 130.403 519.78 131.313 521.037 132.267C522.077 133.004 523.074 133.828 524.071 134.608C525.328 135.562 526.542 136.559 527.756 137.556C528.753 138.379 529.707 139.247 530.661 140.114C531.831 141.154 532.958 142.151 534.085 143.235C534.909 144.015 535.733 144.839 536.556 145.619C525.415 136.602 513.624 128.669 501.529 121.862C501.529 122.643 501.572 123.466 501.572 124.247C501.659 124.29 501.745 124.333 501.789 124.377C503.046 125.07 504.303 125.807 505.517 126.544C507.164 127.542 508.855 128.582 510.502 129.622C511.716 130.359 512.93 131.14 514.101 131.877C515.791 132.96 517.482 134.131 519.173 135.302C520.3 136.082 521.427 136.819 522.554 137.599C524.375 138.9 526.195 140.244 527.973 141.588C528.927 142.281 529.88 142.975 530.791 143.668C533.348 145.663 535.906 147.657 538.42 149.781C538.594 149.911 538.724 149.998 538.854 150.128C540.805 151.775 542.756 153.466 544.706 155.2C537.25 154.376 528.016 153.769 517.135 153.249C513.45 144.232 498.407 127.932 491.818 120.692C491.818 121.689 491.775 122.686 491.731 123.683C491.861 123.857 506.644 138.986 513.494 150.215C509.375 146.486 495.46 134.911 491.298 131.53C491.255 132.354 491.168 133.177 491.081 134.001C493.379 135.865 505.387 145.836 507.641 147.787C508.552 148.567 509.462 149.434 510.416 150.258C511.456 151.168 512.497 152.079 513.537 153.032C509.029 152.816 492.642 150.778 487.786 150.605C487.656 151.298 486.876 151.992 486.746 152.642C492.468 152.859 510.372 154.94 515.618 155.2C520.126 166.818 522.164 179.954 522.164 193.913C522.164 200.503 521.687 207.222 520.82 214.072C521.21 214.245 521.644 214.462 522.034 214.636C522.294 214.766 522.511 214.852 522.771 214.982C523.724 207.829 524.201 200.806 524.201 193.913C524.201 181.124 522.467 168.943 518.782 157.931C519.259 158.408 519.78 158.885 520.256 159.362C521.6 160.619 522.901 161.876 524.201 163.177C525.502 164.477 526.846 165.821 528.146 167.165C529.403 168.466 530.704 169.723 531.961 171.067C533.305 172.454 534.562 173.928 535.906 175.359C537.12 176.659 538.334 177.96 539.504 179.26C540.848 180.778 542.149 182.295 543.493 183.856C544.62 185.156 545.747 186.413 546.787 187.714C548.218 189.448 549.605 191.225 551.036 192.96C551.989 194.13 552.943 195.257 553.853 196.428C556.108 199.332 558.319 202.28 560.486 205.272C561.093 206.095 561.657 206.962 562.264 207.786C563.868 210.084 565.472 212.338 567.032 214.679C567.856 215.893 568.593 217.107 569.373 218.364C570.37 219.881 571.367 221.398 572.321 222.959C562.09 222.569 550.559 222.222 537.814 221.919C539.374 222.656 540.978 223.349 542.539 224.086C553.81 224.346 564.084 224.693 573.275 225.04C573.708 229.505 573.882 234.014 573.882 238.566C573.882 259.505 569.85 281.354 562.697 303.074C560.573 297.091 558.275 291.195 555.761 285.299C555.241 285.819 554.677 286.34 554.157 286.903C554.504 287.77 554.851 288.637 555.197 289.504C556.021 291.542 556.888 293.579 557.668 295.617C558.319 297.308 558.926 298.998 559.533 300.733C560.096 302.25 560.66 303.767 561.18 305.285H541.455C541.455 305.978 541.455 306.672 541.455 307.365H561.18C551.599 335.024 537.553 361.859 521.123 387.306C519.866 380.5 518.262 373.651 516.355 366.758C515.791 367.321 515.228 367.885 514.664 368.448C514.794 368.839 514.881 369.229 515.011 369.619C515.531 371.613 516.008 373.651 516.485 375.645C516.832 377.032 517.178 378.419 517.482 379.807C517.915 381.714 518.262 383.621 518.609 385.529C518.826 386.699 519.086 387.913 519.303 389.04C508.205 389.214 496.63 389.387 484.709 389.517C481.977 389.908 479.376 390.645 476.992 391.685C491.428 391.555 505.3 391.382 518.609 391.121C502.439 415.745 484.839 437.941 467.455 457.623C466.284 445.008 462.946 431.569 458.221 417.436C458.178 417.956 458.091 418.433 458.048 418.953C458.481 419.127 458.785 419.3 458.308 419.777C458.221 419.517 458.134 419.257 458.048 418.953C458.134 419.213 458.221 419.474 458.308 419.777C458.308 421.251 458.264 422.725 458.264 424.199C458.611 425.283 458.958 426.41 459.261 427.45C460.085 430.312 460.865 433.129 461.559 435.904C461.689 436.381 461.776 436.858 461.906 437.335C462.469 439.632 462.99 441.887 463.423 444.097C463.64 445.095 463.77 446.092 463.943 447.175C464.247 448.823 464.55 450.514 464.81 452.118C464.984 453.245 465.027 454.372 465.201 455.542C465.331 456.756 465.504 457.927 465.591 459.097C455.273 459.314 444.695 459.444 433.988 459.574C433.294 460.268 432.601 460.961 431.907 461.655C442.918 461.568 453.799 461.438 464.377 461.221C449.421 477.955 435.765 491.568 424.234 502.016C423.367 493.432 419.292 483.288 413.569 471.669C412.486 471.236 411.445 470.629 410.622 469.805C410.405 469.588 410.231 469.415 410.015 469.198C410.492 470.152 410.968 471.149 411.445 472.103C411.749 472.71 412.096 473.36 412.399 473.967C413.049 475.354 413.656 476.655 414.306 477.999C414.567 478.606 414.87 479.213 415.13 479.733C415.824 481.293 416.474 482.811 417.081 484.285C417.211 484.588 417.341 484.935 417.471 485.195C418.208 486.973 418.858 488.707 419.422 490.354C419.509 490.571 419.552 490.831 419.639 491.091C420.115 492.478 420.549 493.866 420.896 495.209C421.026 495.686 421.113 496.163 421.199 496.727C421.459 497.767 421.719 498.808 421.849 499.761C421.936 500.282 421.936 500.802 422.023 501.409C422.11 502.016 422.196 502.623 422.24 503.23C417.081 503.273 411.922 503.316 406.763 503.316C401.605 503.316 396.446 503.316 391.287 503.23C391.937 493.215 397.703 480.296 405.723 464.95C405.203 464.43 404.682 463.909 404.206 463.432C396.272 478.606 390.377 491.481 389.336 502.059C377.805 491.611 364.193 477.955 349.193 461.265C362.025 461.525 375.204 461.698 388.556 461.742C393.194 461.785 397.876 461.785 402.558 461.785C401.865 461.091 401.171 460.398 400.477 459.704C382.53 459.661 364.886 459.487 347.893 459.141C349.54 439.329 356.693 417.133 366.49 393.246C371.996 402.61 377.328 411.583 382.487 420.297C382.964 419.777 383.484 419.257 383.961 418.78C378.845 410.153 373.556 401.222 368.138 391.988C375.334 392.032 382.573 392.032 389.813 392.032C388.989 391.338 388.166 390.645 387.299 389.951C380.796 389.951 374.337 389.908 367.877 389.908C369.351 386.353 370.912 382.754 372.473 379.2C372.386 379.113 372.299 379.07 372.169 378.983C371.649 378.636 371.215 378.289 370.782 377.899C369.221 381.454 367.661 385.052 366.187 388.607C350.884 362.466 335.711 335.457 322.662 307.409H326.477C324.786 306.845 323.052 306.238 321.362 305.675C320.538 305.415 319.844 305.068 319.151 304.764C319.237 304.981 319.324 305.154 319.411 305.371H252.217C255.165 296.874 258.546 288.464 262.231 280.14C261.711 279.62 261.19 279.1 260.67 278.58C257.029 286.686 253.691 294.923 250.743 303.204C243.633 281.484 239.558 259.592 239.558 238.696C239.558 234.144 239.732 229.592 240.122 225.17C241.032 225.127 241.986 225.083 242.896 225.083C243.633 225.04 244.327 225.04 245.064 224.997C246.234 224.953 247.491 224.91 248.705 224.867C249.486 224.823 250.223 224.823 250.96 224.78C252.477 224.737 254.038 224.693 255.598 224.65C256.118 224.65 256.595 224.607 257.115 224.607C260.02 224.52 263.011 224.433 266.089 224.346C266.783 223.653 267.52 222.916 268.213 222.222C258.329 222.482 249.226 222.742 240.989 223.089C255.988 198.855 274.413 176.963 294.527 157.975C292.923 162.657 291.753 167.512 290.843 172.541C291.58 172.411 292.273 172.324 292.967 172.281C294.051 166.342 295.568 160.662 297.649 155.33H297.692V155.287C306.579 154.853 316.116 154.506 326.217 154.203C326.911 153.423 327.691 152.729 328.645 152.165C328.688 152.122 328.775 152.122 328.818 152.079C318.544 152.382 308.79 152.729 299.73 153.119C315.206 139.073 330.986 127.281 346.462 117.917C346.635 117.007 346.809 116.097 346.982 115.186C331.332 124.464 315.423 136.255 299.773 150.301C307.403 133.958 320.711 120.432 336.968 111.848C337.922 111.761 338.876 111.675 339.873 111.588C340.436 111.545 340.956 111.501 341.52 111.458C342.3 111.415 343.124 111.328 343.948 111.284C344.858 111.241 345.682 111.154 346.592 111.111C346.982 111.068 346.679 111.111 347.112 111.068C347.286 110.374 347.589 109.681 347.763 108.944C346.028 109.03 344.945 109.117 343.341 109.247C345.161 108.553 346.592 108.033 348.413 107.383C348.76 106.039 349.497 104.565 349.887 103.178C341.217 105.605 332.72 108.51 324.57 111.978C318.327 114.579 312.301 117.527 306.362 120.692C287.591 130.836 270.554 143.712 255.728 158.842C240.902 174.015 228.287 191.399 218.533 210.43C216.279 215.242 214.328 220.098 212.594 225.04L212.42 225.56L212.377 225.604L212.074 226.254L211.553 227.338H211.597C208.996 233.017 206.698 238.783 204.704 244.678C198.722 264.274 195.47 284.996 195.47 306.542C195.47 306.672 195.47 306.758 195.47 306.845C195.514 328.131 198.678 348.68 204.574 368.058C206.785 374.561 209.343 380.89 212.247 387.133L212.377 387.393L212.464 387.566C214.198 392.595 216.235 397.581 218.49 402.48C228.547 422.118 241.552 439.936 256.942 455.412C271.465 469.979 288.068 482.421 306.319 492.305C312.822 495.816 319.584 499.024 326.477 501.842C338.182 506.654 350.45 510.426 363.109 513.07C367.791 514.024 372.516 514.891 377.328 515.541C380.449 515.975 383.614 516.322 386.778 516.625C389.163 516.842 391.59 517.015 394.018 517.189C396.229 517.319 398.483 517.406 400.738 517.492C402.081 517.536 403.425 517.536 404.769 517.579C405.289 517.579 405.81 517.579 406.286 517.579C406.33 517.579 406.373 517.579 406.46 517.579C406.937 517.579 407.414 517.579 407.89 517.579H407.934C408.584 517.579 409.278 517.579 409.928 517.536H410.058C411.749 517.492 413.526 517.449 415.26 517.406C415.477 517.406 415.694 517.406 415.91 517.362C440.794 516.278 464.55 510.859 486.443 501.886C487.093 501.626 487.743 501.365 488.393 501.062C513.884 490.311 536.816 474.704 556.021 455.412C571.411 439.979 584.416 422.118 594.43 402.523C596.684 397.668 598.678 392.769 600.413 387.783L600.543 387.393L600.803 386.83L601.41 385.572C604.054 379.807 606.395 373.911 608.389 367.971C614.241 348.636 617.406 328.174 617.449 306.975V306.628C617.753 285.082 614.588 264.404 608.649 244.895ZM607.305 278.059C607.305 285.386 606.828 292.756 605.918 300.126C600.803 274.375 590.268 249.014 576.093 225.343C577.003 225.387 577.87 225.43 578.737 225.474C579.214 225.517 579.647 225.517 580.124 225.56C580.948 225.604 581.815 225.647 582.595 225.69C583.072 225.734 583.549 225.734 584.026 225.777C584.763 225.82 585.456 225.864 586.15 225.907C586.67 225.95 587.147 225.95 587.624 225.994C588.231 226.037 588.838 226.037 589.401 226.08C589.922 226.124 590.442 226.167 590.962 226.211C591.439 226.254 591.959 226.297 592.393 226.297C592.956 226.341 593.433 226.384 593.953 226.427C594.343 226.471 594.69 226.514 595.037 226.514C595.557 226.557 596.034 226.644 596.554 226.687C596.858 226.731 597.161 226.774 597.421 226.774C597.985 226.861 598.548 226.948 599.069 227.034C604.618 243.161 607.349 260.459 607.305 278.059ZM564.128 307.495H604.791C600.239 333.853 589.922 359.995 575.572 384.402C575.789 381.02 575.919 377.596 575.919 374.171C575.919 352.538 571.627 329.908 564.128 307.495ZM553.853 158.885C554.417 159.015 554.851 159.188 555.197 159.318L555.154 159.362L555.891 160.055L556.108 160.272L556.585 160.792L556.628 160.749C570.197 174.015 581.685 189.318 590.225 205.965C579.517 188.494 566.122 172.411 550.906 158.148C551.036 158.191 551.209 158.191 551.339 158.235C551.643 158.278 551.946 158.365 552.249 158.408C552.423 158.451 552.553 158.495 552.683 158.495C553.117 158.712 553.507 158.798 553.853 158.885ZM533.348 139.767C540.068 144.882 546.44 150.431 552.336 156.371C551.166 156.11 549.778 155.894 548.305 155.677C543.796 150.041 538.767 144.709 533.348 139.767ZM519.173 155.503C519.216 155.503 519.303 155.503 519.389 155.503C520.083 155.547 520.777 155.59 521.427 155.59C522.164 155.634 522.901 155.677 523.594 155.72C524.331 155.764 525.068 155.807 525.805 155.85C526.499 155.894 527.149 155.937 527.843 155.98C528.536 156.024 529.273 156.067 529.967 156.11C530.661 156.154 531.311 156.197 531.961 156.24C532.611 156.284 533.262 156.327 533.869 156.371C534.606 156.414 535.299 156.501 536.036 156.544C536.556 156.587 537.077 156.631 537.597 156.674C538.377 156.761 539.114 156.804 539.851 156.891C540.285 156.934 540.675 156.977 541.108 157.021C541.975 157.108 542.842 157.194 543.666 157.281C543.926 157.324 544.186 157.324 544.403 157.368C545.357 157.454 546.31 157.584 547.221 157.671C548.088 158.755 548.911 159.839 549.692 160.966C549.909 161.269 550.125 161.573 550.342 161.92C550.992 162.83 551.599 163.697 552.206 164.607C552.466 164.998 552.77 165.431 553.03 165.865C553.55 166.688 554.114 167.512 554.59 168.336C554.894 168.813 555.154 169.289 555.457 169.766C555.934 170.547 556.411 171.37 556.845 172.151C557.148 172.671 557.408 173.191 557.712 173.711C558.145 174.492 558.579 175.272 558.969 176.052C559.229 176.573 559.532 177.136 559.793 177.7C560.183 178.48 560.573 179.26 560.963 180.041C561.223 180.604 561.483 181.168 561.743 181.775C562.09 182.555 562.48 183.335 562.827 184.116C563.087 184.723 563.304 185.33 563.564 185.893C563.911 186.674 564.214 187.454 564.518 188.234C564.778 188.841 564.995 189.491 565.211 190.098C565.515 190.879 565.818 191.659 566.078 192.439C566.295 193.09 566.512 193.697 566.729 194.347C566.989 195.127 567.249 195.908 567.509 196.688C567.726 197.338 567.899 197.988 568.116 198.639C568.376 199.419 568.593 200.243 568.81 201.023C568.983 201.673 569.156 202.367 569.33 203.017C569.547 203.798 569.763 204.621 569.937 205.402C570.11 206.095 570.24 206.789 570.414 207.482C570.587 208.263 570.76 209.087 570.934 209.867C571.064 210.561 571.194 211.254 571.324 211.948C571.497 212.771 571.627 213.552 571.757 214.332C571.888 215.026 571.974 215.763 572.104 216.456C572.234 217.237 572.364 218.06 572.451 218.841C572.494 219.101 572.538 219.361 572.538 219.621C557.538 195.821 539.157 174.232 519.173 155.503ZM554.937 164.998C555.371 165.431 555.761 165.821 556.194 166.255C557.582 167.642 558.882 169.029 560.226 170.46C561.353 171.63 562.437 172.801 563.521 174.015C564.821 175.445 566.078 176.919 567.379 178.393C568.419 179.607 569.503 180.821 570.5 182.035C571.757 183.552 572.971 185.113 574.185 186.63C575.139 187.887 576.136 189.101 577.09 190.358C578.303 191.963 579.474 193.653 580.644 195.301C581.511 196.514 582.422 197.728 583.245 198.942C584.503 200.763 585.673 202.67 586.887 204.578C587.581 205.662 588.274 206.745 588.968 207.786C590.789 210.734 592.479 213.769 594.127 216.803C594.473 217.41 594.777 218.06 595.08 218.711C596.121 220.705 597.161 222.699 598.115 224.693C592.913 223.956 585.24 223.609 575.139 223.219C573.015 202.194 566.035 182.122 554.937 164.998ZM575.919 238.739C575.919 235.314 575.789 231.89 575.572 228.508C576.916 230.763 578.217 233.06 579.474 235.358C579.604 235.618 579.777 235.921 579.951 236.225C581.555 239.173 583.115 242.164 584.633 245.155C584.763 245.415 584.849 245.632 585.023 245.936C586.54 248.97 587.971 252.048 589.315 255.126C589.401 255.343 589.488 255.516 589.575 255.777C590.962 258.898 592.262 262.063 593.476 265.227C593.52 265.357 593.606 265.531 593.65 265.704C594.907 268.912 596.077 272.164 597.161 275.415C597.205 275.502 597.204 275.588 597.248 275.675C598.332 279.013 599.372 282.308 600.326 285.646V285.689C601.28 289.027 602.103 292.409 602.884 295.747C602.927 295.834 602.927 295.921 602.927 295.964C603.62 299.129 604.271 302.293 604.791 305.458H564.128C571.627 283.045 575.919 260.459 575.919 238.739ZM562.654 309.706C562.914 310.53 563.174 311.397 563.434 312.221C563.824 313.435 564.214 314.649 564.561 315.819C565.081 317.466 565.515 319.157 565.992 320.805C566.295 321.975 566.642 323.102 566.945 324.229C567.379 325.92 567.769 327.654 568.203 329.345C568.463 330.472 568.766 331.556 568.983 332.64C569.373 334.374 569.677 336.108 570.023 337.842C570.24 338.926 570.5 340.009 570.674 341.05C570.977 342.784 571.237 344.518 571.541 346.295C571.714 347.336 571.888 348.42 572.061 349.417C572.321 351.194 572.494 352.972 572.711 354.749C572.841 355.746 572.971 356.743 573.058 357.697C573.231 359.561 573.361 361.425 573.448 363.333C573.492 364.2 573.578 365.11 573.622 365.977C573.752 368.708 573.838 371.44 573.838 374.127C573.838 378.723 573.622 383.231 573.231 387.697C558.882 388.26 541.889 388.694 522.511 389.084C538.897 363.896 552.943 337.235 562.654 309.706ZM517.092 459.661C522.554 459.401 527.583 459.097 532.221 458.75C532.525 458.75 532.872 458.707 533.218 458.707C533.739 458.664 534.259 458.62 534.736 458.577C535.473 458.534 536.21 458.447 536.903 458.404C536.99 458.404 537.033 458.404 537.12 458.404C539.808 458.187 542.322 457.97 544.62 457.71C527.669 472.796 509.072 485.325 489.781 494.949C501.832 485.715 511.413 473.62 517.092 459.661ZM476.298 501.105C471.053 501.582 465.07 501.972 458.351 502.276C476.515 492.435 495.243 479.039 513.537 462.652C505.864 478.952 492.598 492.522 476.298 501.105ZM519.173 457.493C539.201 438.722 557.582 417.133 572.668 393.202C569.677 416.179 560.876 437.811 547.221 455.326C539.851 456.236 530.444 456.886 519.173 457.493ZM572.321 389.864C557.322 414.098 538.941 435.947 518.826 454.935C522.554 443.924 524.288 431.699 524.288 418.867C524.288 409.893 523.464 400.615 521.86 391.208C541.065 390.861 557.972 390.428 572.321 389.864ZM520.04 392.985C520.126 393.419 520.17 393.896 520.256 394.329C520.43 395.587 520.647 396.844 520.82 398.101C520.993 399.358 521.08 400.572 521.254 401.829C521.384 402.913 521.514 403.997 521.6 405.081C521.73 406.555 521.817 407.985 521.904 409.459C521.947 410.326 522.034 411.193 522.077 412.017C522.164 414.315 522.251 416.569 522.251 418.823C522.251 432.826 520.17 445.962 515.705 457.58C501.702 458.23 486.096 458.75 469.146 459.097C486.356 439.589 503.87 417.523 520.04 392.985ZM467.845 461.308H468.062V461.265C484.578 460.918 499.838 460.441 513.58 459.834C495.286 476.438 476.559 489.964 458.394 499.935C464.897 491.308 468.018 479.386 468.018 466.38C467.975 464.69 467.932 462.999 467.845 461.308ZM465.851 462.826C465.894 463.996 465.938 465.21 465.938 466.38C465.938 481.207 461.732 494.429 453.366 502.536C444.782 502.883 435.635 503.143 426.055 503.273C437.586 492.825 451.068 479.299 465.851 462.826ZM352.531 468.114C353.268 468.895 353.962 469.675 354.699 470.455C355.913 471.756 357.126 473.1 358.297 474.357C359.077 475.181 359.814 475.961 360.551 476.741C361.678 477.912 362.805 479.126 363.889 480.253C364.626 481.033 365.32 481.727 366.057 482.464C367.14 483.591 368.268 484.718 369.308 485.802C370.045 486.539 370.739 487.233 371.432 487.926C372.473 488.967 373.513 490.007 374.553 491.048C375.29 491.741 375.941 492.435 376.678 493.085C377.675 494.039 378.672 494.993 379.626 495.946C380.363 496.64 381.013 497.29 381.75 497.941C382.66 498.808 383.614 499.675 384.481 500.498C385.218 501.192 385.911 501.842 386.648 502.493C386.952 502.753 387.212 503.013 387.515 503.273C377.935 503.143 368.788 502.883 360.248 502.536C351.881 494.386 347.676 481.207 347.676 466.38C347.676 465.253 347.719 464.169 347.763 463.042L347.849 463.172V462.912C349.41 464.646 350.971 466.424 352.531 468.114ZM345.725 461.308C345.595 462.999 345.552 464.69 345.552 466.38C345.552 468.245 345.638 470.065 345.768 471.886C345.812 472.536 345.898 473.1 345.942 473.663C346.072 474.834 346.159 476.048 346.332 477.218C346.462 477.912 346.592 478.606 346.722 479.256C346.895 480.296 347.112 481.293 347.329 482.334C347.502 483.071 347.719 483.765 347.893 484.415C348.153 485.325 348.413 486.279 348.716 487.233C348.933 487.926 349.236 488.62 349.453 489.27C349.757 490.137 350.104 491.004 350.494 491.828C350.797 492.478 351.101 493.129 351.447 493.735C351.838 494.516 352.271 495.296 352.705 496.076C353.051 496.683 353.441 497.29 353.832 497.854C354.309 498.591 354.785 499.285 355.306 499.978C337.098 490.007 318.327 476.438 299.99 459.791C313.775 460.441 329.078 460.918 345.638 461.265V461.308H345.725ZM297.952 457.667C293.444 446.048 291.363 432.869 291.363 418.91C291.363 410.543 292.1 401.829 293.487 393.029C294.181 394.069 294.874 395.11 295.568 396.15C296.608 397.711 297.692 399.315 298.732 400.876C299.86 402.523 300.987 404.084 302.114 405.688C303.154 407.162 304.195 408.679 305.235 410.153C306.449 411.887 307.706 413.534 308.963 415.225C309.917 416.526 310.871 417.87 311.868 419.17C313.559 421.468 315.293 423.679 317.027 425.933C318.067 427.277 319.064 428.577 320.105 429.878C321.839 432.089 323.573 434.3 325.307 436.467C326.26 437.638 327.214 438.765 328.124 439.892C329.425 441.496 330.769 443.144 332.113 444.748C333.153 446.005 334.237 447.219 335.277 448.476C336.491 449.907 337.705 451.381 338.919 452.768C340.046 454.068 341.13 455.282 342.214 456.539C342.994 457.406 343.731 458.274 344.511 459.141C327.561 458.837 311.955 458.317 297.952 457.667ZM289.282 418.91C289.282 420.687 289.325 422.421 289.369 424.156C289.412 424.762 289.455 425.369 289.455 425.933C289.499 427.06 289.585 428.187 289.672 429.314C289.715 430.051 289.802 430.788 289.889 431.525C289.976 432.479 290.062 433.433 290.192 434.43C290.279 435.21 290.409 435.991 290.496 436.771C290.626 437.638 290.756 438.548 290.886 439.415C291.016 440.239 291.189 441.02 291.319 441.8C291.493 442.624 291.623 443.491 291.796 444.314C291.97 445.138 292.143 445.918 292.36 446.655C292.533 447.436 292.75 448.259 292.967 449.083C293.184 449.863 293.4 450.644 293.617 451.424C293.834 452.204 294.094 452.985 294.311 453.765C294.441 454.198 294.571 454.632 294.744 455.022C274.629 436.034 256.205 414.141 241.206 389.908C255.555 390.471 272.462 390.905 291.666 391.295C290.149 400.659 289.282 409.936 289.282 418.91ZM242.159 395.066C243.156 396.584 244.11 398.144 245.107 399.705C246.191 401.352 247.361 402.956 248.489 404.561C249.529 406.034 250.526 407.552 251.567 409.026C252.737 410.673 253.951 412.234 255.165 413.838C256.205 415.225 257.246 416.699 258.373 418.086C259.673 419.734 260.974 421.338 262.274 422.942C263.315 424.242 264.355 425.543 265.439 426.843C267.173 428.881 268.907 430.875 270.684 432.913C272.288 434.733 273.936 436.554 275.583 438.375C277.144 440.066 278.704 441.8 280.308 443.491C281.522 444.748 282.736 445.962 283.95 447.175C285.337 448.563 286.724 449.993 288.111 451.381C289.412 452.638 290.713 453.852 292.013 455.109C292.837 455.889 293.66 456.713 294.484 457.493C283.169 456.886 273.762 456.236 266.393 455.326C252.737 437.811 243.893 416.135 240.946 393.159C241.336 393.766 241.726 394.416 242.159 395.066ZM269.471 457.753C269.947 457.797 270.424 457.84 270.901 457.883C271.508 457.927 272.115 458.013 272.765 458.057C273.285 458.1 273.849 458.144 274.369 458.187C274.976 458.23 275.583 458.317 276.233 458.36C276.84 458.404 277.447 458.447 278.097 458.49C278.704 458.534 279.311 458.577 279.961 458.62C280.612 458.664 281.305 458.707 281.956 458.75C282.606 458.794 283.213 458.837 283.906 458.881C284.6 458.924 285.337 458.967 286.031 459.011C286.681 459.054 287.331 459.097 288.025 459.141C288.805 459.184 289.585 459.227 290.409 459.271C291.059 459.314 291.71 459.357 292.36 459.357C293.704 459.444 295.048 459.487 296.435 459.574C297.172 461.352 297.952 463.086 298.819 464.82C298.949 465.036 299.036 465.297 299.166 465.557C300.033 467.291 300.987 469.025 302.027 470.672C302.201 470.976 302.374 471.279 302.591 471.583C303.588 473.23 304.672 474.834 305.799 476.438C305.972 476.698 306.189 476.958 306.362 477.218C307.533 478.822 308.747 480.383 310.047 481.9C310.177 482.074 310.307 482.204 310.394 482.291C311.694 483.808 313.038 485.238 314.426 486.669C314.556 486.799 314.642 486.886 314.816 487.059C316.246 488.49 317.677 489.834 319.194 491.134C319.454 491.351 319.671 491.568 319.974 491.785C321.232 492.868 322.532 493.909 323.876 494.906C304.542 485.282 285.857 472.71 268.864 457.623C269.08 457.71 269.297 457.71 269.471 457.753ZM300.033 462.565C300.597 463.042 301.16 463.519 301.68 464.039C302.721 464.95 303.761 465.903 304.802 466.814C306.406 468.201 308.01 469.545 309.614 470.889C310.567 471.669 311.521 472.493 312.475 473.273C314.382 474.834 316.333 476.351 318.24 477.825C318.891 478.346 319.541 478.866 320.191 479.386C322.749 481.337 325.35 483.244 327.908 485.108C328.601 485.629 329.295 486.062 329.989 486.539C331.853 487.84 333.76 489.184 335.624 490.441C336.621 491.134 337.662 491.741 338.659 492.392C340.219 493.389 341.78 494.429 343.297 495.383C344.424 496.076 345.508 496.727 346.635 497.377C348.066 498.244 349.497 499.111 350.971 499.935C352.141 500.585 353.268 501.192 354.439 501.842C354.742 502.016 355.046 502.189 355.349 502.363C348.63 502.016 342.56 501.626 337.315 501.149C320.972 492.478 307.663 478.952 300.033 462.565ZM346.029 457.753C328.645 438.072 311.044 415.919 294.874 391.295C316.68 391.685 340.176 391.902 364.886 392.032C355.132 415.702 347.936 437.811 346.029 457.753ZM321.145 308.969C321.839 310.443 322.576 311.961 323.269 313.435C324.05 315.039 324.786 316.643 325.567 318.247C326.607 320.328 327.648 322.409 328.688 324.489C329.425 325.963 330.162 327.481 330.899 328.955C332.026 331.209 333.197 333.42 334.367 335.674C335.017 336.975 335.711 338.275 336.405 339.576C337.965 342.567 339.569 345.515 341.173 348.463C341.477 348.983 341.737 349.547 342.04 350.067C343.948 353.579 345.855 357.047 347.806 360.515C347.849 360.602 347.936 360.732 347.979 360.818C349.843 364.2 351.751 367.538 353.658 370.919C353.832 371.223 354.048 371.57 354.222 371.873C355.999 374.994 357.777 378.072 359.554 381.15C359.901 381.757 360.291 382.408 360.638 383.015C361.982 385.356 363.369 387.697 364.713 389.994C339.829 389.864 316.203 389.604 294.224 389.214C298.819 363.159 308.66 336.194 321.145 308.969ZM319.498 307.495C307.099 334.547 297.215 361.425 292.36 387.436C275.973 361.989 261.884 335.154 252.303 307.495H319.498ZM250.916 309.663C251.393 310.964 251.87 312.264 252.347 313.565C252.91 315.082 253.431 316.643 254.038 318.203C254.861 320.328 255.772 322.452 256.639 324.576C257.202 326.007 257.766 327.437 258.416 328.868C259.413 331.166 260.454 333.42 261.494 335.718C262.057 336.931 262.578 338.189 263.185 339.446C264.442 342.134 265.786 344.821 267.13 347.466C267.52 348.246 267.91 349.07 268.3 349.894C271.855 356.83 275.583 363.68 279.528 370.486C280.048 371.396 280.612 372.263 281.132 373.13C282.606 375.601 284.08 378.116 285.597 380.587C286.291 381.714 287.028 382.841 287.721 383.925C288.848 385.702 289.932 387.436 291.059 389.214C271.681 388.867 254.688 388.39 240.339 387.827C239.948 383.361 239.775 378.853 239.775 374.301C239.688 353.275 243.763 331.382 250.916 309.663ZM237.781 381.194C237.824 381.974 237.868 382.711 237.911 383.448C237.954 383.795 237.954 384.142 237.954 384.489C223.605 360.081 213.244 333.897 208.692 307.495H249.356C241.856 329.865 237.564 352.495 237.564 374.214C237.651 376.555 237.694 378.896 237.781 381.194ZM240.165 268.175C240.382 269.562 240.599 270.95 240.859 272.337C241.119 273.811 241.466 275.285 241.769 276.716C242.073 278.059 242.289 279.447 242.593 280.834C242.94 282.351 243.33 283.825 243.677 285.343C243.98 286.687 244.284 288.03 244.674 289.374C245.064 290.892 245.541 292.409 245.931 293.883C246.321 295.227 246.668 296.571 247.058 297.915C247.492 299.389 247.968 300.819 248.445 302.25C248.792 303.29 249.095 304.331 249.442 305.415H208.779C213.288 279.013 223.648 252.872 237.998 228.508C237.781 231.89 237.694 235.314 237.651 238.739C237.651 241.47 237.737 244.245 237.868 247.019C237.911 248.017 238.041 249.014 238.084 250.011C238.214 251.788 238.301 253.566 238.474 255.386C238.605 256.73 238.778 258.031 238.951 259.331C239.125 260.805 239.255 262.279 239.472 263.797C239.645 265.314 239.905 266.745 240.165 268.175ZM240.902 219.751C243.893 196.775 252.737 175.099 266.393 157.628C273.762 156.717 283.169 156.067 294.441 155.46C274.413 174.232 255.988 195.821 240.902 219.751ZM296.522 153.293C285.64 153.856 276.363 154.42 268.907 155.287C285.857 140.244 304.498 127.672 323.746 118.091C311.738 127.238 302.157 139.333 296.522 153.293ZM339.786 108.293C338.746 108.813 337.705 109.334 336.665 109.854C336.014 109.897 335.407 109.984 334.844 110.027C336.491 109.42 338.139 108.857 339.786 108.293ZM324.916 113.929L325.697 113.626C326.824 113.235 328.385 112.932 330.335 112.628C311.694 121.125 293.574 132.31 276.84 145.879C290.192 132.527 306.752 121.732 324.916 113.929ZM280.265 139.723C274.803 144.665 269.731 149.998 265.222 155.72C263.748 155.894 262.404 156.154 261.234 156.414C267.173 150.431 273.545 144.882 280.265 139.723ZM256.942 160.792L257.722 160.055L257.939 159.839L258.416 159.362H258.373C259.24 159.015 260.757 158.581 262.621 158.235C247.405 172.497 234.009 188.581 223.302 206.095C231.842 189.405 243.33 174.101 256.942 160.792ZM258.633 164.911C247.535 182.035 240.555 202.15 238.388 223.219C228.287 223.653 220.657 224 215.412 224.693C226.076 202.757 240.946 182.555 258.633 164.911ZM214.458 226.948C214.631 226.904 214.761 226.904 214.935 226.861C215.282 226.817 215.628 226.731 216.019 226.687C216.322 226.644 216.669 226.601 217.016 226.557C217.449 226.514 217.883 226.427 218.36 226.384C218.663 226.341 219.01 226.341 219.357 226.297C219.92 226.254 220.44 226.211 221.004 226.167C221.264 226.167 221.611 226.124 221.871 226.124C222.565 226.08 223.215 226.037 223.952 225.994C224.212 225.994 224.515 225.95 224.819 225.95C225.599 225.907 226.38 225.864 227.203 225.82C227.463 225.82 227.81 225.777 228.114 225.777C230.931 225.647 234.053 225.517 237.477 225.343C223.258 249.014 212.811 274.375 207.652 300.169C206.698 292.799 206.221 285.429 206.221 278.103C206.221 260.459 208.952 243.161 214.458 226.948ZM208.042 242.251C205.441 253.912 204.14 265.921 204.14 278.059C204.14 280.4 204.184 282.785 204.27 285.126C204.314 286.21 204.401 287.337 204.487 288.377C204.574 289.634 204.617 290.892 204.704 292.192C204.834 293.536 204.964 294.88 205.094 296.224C205.181 297.221 205.268 298.261 205.398 299.259C205.571 300.689 205.788 302.12 206.005 303.507C206.091 304.157 206.178 304.808 206.265 305.458H197.464C197.421 304.027 197.378 302.64 197.378 301.209C197.508 281.354 201.149 261.326 208.042 242.251ZM197.508 311.744C197.508 310.313 197.508 308.883 197.594 307.495H206.351C204.921 316.599 204.184 325.747 204.184 334.851C204.184 336.975 204.227 339.099 204.314 341.223C204.357 341.917 204.401 342.611 204.401 343.304C204.487 344.735 204.531 346.165 204.661 347.596C204.704 348.42 204.791 349.243 204.877 350.024C205.007 351.324 205.138 352.625 205.268 353.882C205.354 354.749 205.484 355.573 205.571 356.44C205.744 357.697 205.918 358.911 206.091 360.168C206.221 361.035 206.351 361.902 206.525 362.726C206.742 363.983 206.958 365.197 207.218 366.411C207.392 367.234 207.522 368.058 207.695 368.882C207.825 369.532 207.955 370.182 208.129 370.789C201.149 351.714 197.508 331.643 197.508 311.744ZM206.221 334.851C206.221 327.524 206.698 320.111 207.652 312.741C208.042 314.735 208.476 316.686 208.909 318.68C208.996 319.07 209.082 319.461 209.169 319.807C209.906 322.885 210.686 325.92 211.553 328.998C211.64 329.345 211.77 329.692 211.857 329.995C212.767 333.073 213.721 336.151 214.761 339.229C214.848 339.533 214.978 339.793 215.065 340.096C216.149 343.217 217.276 346.339 218.49 349.417C218.576 349.634 218.663 349.85 218.75 350.024C220.007 353.188 221.351 356.353 222.738 359.474C222.781 359.604 222.868 359.691 222.868 359.821C225.773 366.324 228.981 372.697 232.449 378.983C232.492 379.026 232.492 379.113 232.535 379.156C234.096 381.974 235.743 384.792 237.391 387.566C226.943 387.133 219.14 386.743 214.371 385.962C208.952 369.792 206.221 352.451 206.221 334.851ZM215.455 388.26C215.542 388.26 215.628 388.304 215.759 388.304C220.961 388.997 228.547 389.344 238.474 389.777C238.735 392.379 239.081 394.98 239.515 397.581C239.558 397.754 239.558 397.971 239.602 398.188C240.035 400.832 240.555 403.477 241.162 406.034C241.249 406.338 241.292 406.641 241.379 406.988C241.986 409.503 242.636 412.017 243.373 414.488C243.46 414.835 243.59 415.225 243.72 415.572C244.457 418 245.281 420.427 246.148 422.768C246.278 423.158 246.451 423.505 246.581 423.895C247.492 426.236 248.445 428.577 249.442 430.875C249.616 431.222 249.789 431.612 249.919 431.959C250.96 434.257 252.087 436.511 253.257 438.765C253.431 439.069 253.604 439.372 253.734 439.676C254.948 441.93 256.248 444.141 257.592 446.308C257.722 446.569 257.896 446.742 258.026 446.959C258.286 447.349 258.503 447.739 258.763 448.129C240.989 430.442 226.076 410.196 215.455 388.26ZM258.373 453.635L257.679 452.898C243.633 439.329 231.755 423.549 223.041 406.381C223.475 407.075 223.909 407.769 224.342 408.462C225.426 410.153 226.51 411.844 227.593 413.491C228.417 414.748 229.241 415.962 230.108 417.176C231.278 418.867 232.492 420.514 233.662 422.161C234.53 423.332 235.353 424.502 236.264 425.673C237.564 427.364 238.908 429.011 240.252 430.702C241.119 431.742 241.943 432.826 242.853 433.866C244.37 435.687 245.974 437.465 247.535 439.242C248.272 440.066 249.009 440.933 249.789 441.8C252.173 444.401 254.601 446.915 257.072 449.386C257.202 449.516 257.332 449.647 257.462 449.733C259.153 451.424 260.887 453.115 262.664 454.762C261.537 454.545 260.54 454.285 259.717 454.068C259.153 453.895 258.719 453.765 258.373 453.635ZM261.234 456.583C262.404 456.843 263.792 457.06 265.265 457.276C266.479 458.794 267.736 460.311 269.037 461.785C269.47 462.305 269.904 462.782 270.338 463.259C271.291 464.299 272.245 465.34 273.242 466.38C273.762 466.901 274.239 467.421 274.803 467.984C275.8 468.981 276.84 470.022 277.881 470.976C278.357 471.409 278.834 471.886 279.311 472.32C279.658 472.666 280.048 472.97 280.395 473.317C273.589 468.114 267.216 462.565 261.234 456.583ZM325.523 499.284L325.35 499.241C306.882 491.351 290.106 480.426 276.58 466.857C277.534 467.638 278.488 468.375 279.441 469.155C280.612 470.109 281.826 471.019 283.039 471.973C284.643 473.187 286.291 474.357 287.895 475.528C289.065 476.395 290.236 477.218 291.406 478.085C293.184 479.299 294.961 480.47 296.738 481.684C297.822 482.377 298.863 483.114 299.99 483.808C302.287 485.282 304.628 486.669 306.926 488.056C307.489 488.403 308.053 488.75 308.66 489.14C311.608 490.831 314.512 492.478 317.504 494.039C318.371 494.516 319.238 494.906 320.105 495.339C322.229 496.423 324.353 497.507 326.477 498.548C327.561 499.068 328.688 499.545 329.772 500.065C330.032 500.195 330.292 500.282 330.552 500.412C328.385 500.065 326.737 499.718 325.523 499.284ZM334.801 502.926C335.407 502.969 336.014 503.056 336.665 503.099C337.705 503.663 338.789 504.183 339.873 504.66C338.182 504.14 336.491 503.533 334.801 502.926ZM343.644 503.706C348.413 504.053 353.658 504.313 359.294 504.53H359.337C360.074 505.224 360.855 505.874 361.635 506.481C361.895 506.698 362.198 506.871 362.459 507.088C363.109 507.565 363.759 507.998 364.409 508.475C364.713 508.692 365.016 508.865 365.32 509.039C366.057 509.516 366.837 509.949 367.661 510.383C367.834 510.469 368.051 510.599 368.311 510.729C369.221 511.206 370.132 511.64 371.085 512.073C362.112 510.079 352.921 507.261 343.644 503.706ZM364.496 504.747C365.536 504.79 366.577 504.834 367.661 504.877C368.918 504.92 370.218 504.964 371.519 505.007C372.603 505.05 373.686 505.094 374.814 505.094C376.634 505.137 378.498 505.18 380.363 505.224C380.969 505.224 381.533 505.267 382.14 505.267C384.481 505.31 386.822 505.354 389.206 505.397C389.38 508.865 390.94 511.9 393.368 514.024C393.845 514.458 394.365 514.805 394.928 515.151C385.911 513.807 375.594 510.122 364.496 504.747ZM391.46 506.784C391.807 507.088 392.197 507.435 392.544 507.738C393.194 508.302 393.845 508.865 394.452 509.385C394.668 509.602 394.928 509.776 395.145 509.992C395.795 510.556 396.402 511.076 397.009 511.596C397.183 511.77 397.4 511.943 397.573 512.073C398.353 512.724 399.09 513.331 399.784 513.894C400.434 514.414 401.084 514.891 401.648 515.325C396.359 514.761 392.371 511.423 391.46 506.784ZM408.888 514.935C408.627 515.108 408.411 515.238 408.194 515.368C408.151 515.368 408.107 515.368 408.064 515.368V516.018L408.02 515.368C407.63 515.368 407.24 515.411 406.807 515.411H405.593V515.498C405.333 515.368 405.029 515.195 404.682 514.978C402.168 513.374 397.876 509.732 392.978 505.397C397.573 505.44 402.168 505.484 406.807 505.484C411.402 505.484 416.04 505.44 420.636 505.397C417.601 508.085 414.783 510.513 412.486 512.333C411.055 513.461 409.841 514.328 408.888 514.935ZM413.483 515.108C413.093 515.108 412.616 515.108 412.182 515.151C414.827 513.157 418.295 510.166 422.11 506.828C421.286 510.946 418.035 514.068 413.483 515.108ZM419.075 514.848C419.465 514.588 419.855 514.284 420.202 513.981C422.63 511.857 424.19 508.822 424.364 505.354C432.947 505.224 441.184 505.05 448.987 504.747C438.713 509.732 429.132 513.244 420.636 514.761C420.159 514.805 419.639 514.848 419.075 514.848ZM442.485 512.073C446.906 510.122 450.851 507.651 454.146 504.573C459.825 504.357 465.114 504.053 469.882 503.706C460.649 507.261 451.458 510.079 442.485 512.073ZM475.995 503.923C475.301 504.183 474.564 504.4 473.827 504.66C474.868 504.183 475.865 503.663 476.862 503.143C477.512 503.099 478.119 503.013 478.726 502.969C477.816 503.273 476.905 503.576 475.995 503.923ZM488.263 499.198L488.047 499.284C486.876 499.718 485.229 500.022 483.235 500.325C501.876 491.828 520.04 480.643 536.817 467.074C523.291 480.513 506.601 491.394 488.263 499.198ZM533.305 473.187C538.767 468.244 543.796 462.956 548.305 457.233C548.608 457.19 548.911 457.146 549.215 457.103C549.388 457.06 549.605 457.06 549.822 457.016C550.342 456.93 550.819 456.843 551.296 456.756C551.339 456.756 551.426 456.713 551.556 456.713C551.816 456.67 552.076 456.626 552.336 456.539C546.397 462.522 540.025 468.071 533.305 473.187ZM556.368 453.331L555.891 452.855L555.631 453.115L555.154 453.592L555.197 453.635C554.33 453.982 552.813 454.415 550.906 454.762C566.122 440.499 579.517 424.372 590.268 406.858C581.598 423.809 569.807 439.415 555.891 452.898L556.368 453.331ZM554.894 448.043C565.992 430.918 572.971 410.847 575.139 389.777C585.24 389.344 592.913 388.997 598.072 388.26C587.494 410.196 572.581 430.398 554.894 448.043ZM599.112 386.006C594.3 386.786 586.54 387.176 576.093 387.61C590.268 363.983 600.803 338.579 605.918 312.871C606.005 313.435 606.092 314.042 606.135 314.605C606.308 315.949 606.395 317.25 606.525 318.594C606.612 319.547 606.698 320.458 606.785 321.368C606.915 322.842 606.959 324.359 607.045 325.833C607.089 326.614 607.132 327.394 607.175 328.131C607.262 330.385 607.305 332.64 607.305 334.851C607.349 352.495 604.618 369.792 599.112 386.006ZM605.528 370.616C608.086 358.998 609.386 346.989 609.386 334.851C609.386 325.747 608.649 316.599 607.219 307.495H616.019C616.062 308.926 616.062 310.357 616.062 311.787C616.062 331.599 612.421 351.584 605.528 370.616ZM616.019 305.458H607.219C608.649 296.354 609.386 287.163 609.386 278.059C609.386 265.921 608.086 253.912 605.528 242.294C612.421 261.369 616.106 281.398 616.106 301.209C616.062 302.597 616.062 304.027 616.019 305.458Z" fill="white"/>
<path d="M491.732 186.37C493.466 188.624 495.2 190.922 496.934 193.22C498.321 195.04 499.665 196.861 501.009 198.725C502.353 200.546 503.653 202.324 504.997 204.144C505.951 205.488 506.948 206.919 507.902 208.306C508.162 208.696 508.422 209.043 508.682 209.433C509.939 209.997 511.153 210.56 512.41 211.124C495.07 185.503 487.873 178.957 480.07 169.116C479.723 169.81 479.377 170.46 479.03 171.154L488.394 182.165C489.521 183.552 490.648 184.939 491.732 186.37Z" fill="white"/>
<path fill-rule="evenodd" clip-rule="evenodd" d="M424.061 200.156C367.618 167.035 371.129 110.244 386.649 72.9614C361.115 90.6056 351.925 111.805 353.399 134.738C355.306 165.474 382.4 197.295 424.061 200.156Z" fill="white"/>
<path fill-rule="evenodd" clip-rule="evenodd" d="M432.558 200.936C432.558 200.936 363.543 165.691 396.88 76.6463C406.287 51.5021 410.058 27.6586 399.481 0.043396C399.481 0.043396 462.947 16.5171 437.066 78.1203C421.98 114.059 396.36 163.133 432.558 200.936Z" fill="white"/>
<path fill-rule="evenodd" clip-rule="evenodd" d="M453.192 48.4675C490.128 90.2588 468.235 130.576 452.325 145.619C475.215 133.307 476.385 108.51 476.385 108.51C493.032 161.79 433.511 169.94 438.28 197.165C416.344 171.804 422.63 141.804 437.326 113.972C445.519 98.4523 463.77 74.8688 453.192 48.4675Z" fill="white"/>
<path d="M406.2 518.62C288.718 518.62 193.129 423.679 193.129 306.975C193.129 260.242 208.172 215.936 236.567 178.87C264.052 142.975 303.068 116.313 346.419 103.741L350.407 102.701C350.407 102.701 349.627 104.478 347.763 111.328C306.276 123.51 268.95 149.131 242.636 183.509C215.238 219.231 200.759 261.933 200.759 306.975C200.759 419.474 292.924 510.99 406.157 510.99C519.389 510.99 611.554 419.474 611.554 306.975C611.554 268.739 600.846 231.456 580.558 199.159C560.833 167.729 532.872 142.238 499.751 125.331C497.107 123.987 494.376 122.686 491.688 121.429L491.038 112.845L494.853 114.449C497.671 115.706 500.488 117.094 503.22 118.481C537.597 135.995 566.555 162.44 587.017 195.041C608.086 228.552 619.184 267.265 619.184 306.932C619.27 423.679 523.681 518.62 406.2 518.62Z" fill="white"/>
<path d="M284.037 546.712C283.647 545.064 281.566 543.07 281.132 541.379C280.005 536.871 279.311 535.83 279.008 534.313C278.444 531.105 284.86 534.963 285.597 520.787C285.987 513.504 281.869 511.25 278.531 511.25C269.211 511.293 269.254 531.625 276.364 532.926C278.618 533.359 279.355 541.639 281.306 545.498C274.196 542.16 267.13 538.215 260.107 533.706C261.104 533.316 261.537 531.365 260.974 527.03C260.627 524.472 260.714 521.871 260.194 519.356C255.685 496.857 251.177 474.401 246.711 451.901C239.732 463.519 240.295 476.525 241.293 491.568C241.856 500.368 243.59 509.646 247.102 518.056C247.969 520.137 251.87 526.553 255.338 530.541C243.85 522.738 232.622 513.504 221.958 503.186C222.001 502.969 224.125 494.299 221.828 479.299C218.837 459.704 214.415 440.326 210.687 420.818C203.577 429.965 204.401 442.103 203.837 454.632C203.317 466.51 204.184 479.906 209.733 490.571C199.199 478.996 189.358 466.38 180.644 453.071L181.771 452.464C185.153 451.814 187.624 448.606 188.664 445.008C189.748 441.41 189.661 437.421 189.575 433.563C189.185 415.789 188.838 398.014 188.448 380.283C170.717 414.315 173.708 436.381 178.607 449.95C168.723 434.43 160.313 418 153.94 401.222C154.244 399.662 153.81 397.191 154.33 395.76C155.891 391.642 155.848 390.384 156.454 389.041C157.712 386.266 160.963 393.592 169.416 383.622C173.752 378.506 171.584 373.997 168.766 371.7C160.963 365.284 149.778 380.327 155.024 386.223C156.498 387.87 153.55 393.246 152.553 397.407C147.437 383.231 143.839 368.882 141.975 354.619C144.186 352.538 155.544 341.917 157.495 339.186C161.093 334.157 164.128 328.608 167.856 323.709C169.98 320.935 172.538 318.594 175.182 316.383C176.526 315.255 177.87 314.172 179.17 313.045C179.821 312.481 180.471 311.917 181.121 311.31C181.598 310.877 182.552 310.27 182.682 309.62C181.121 309.186 179.17 309.446 177.61 309.533C175.876 309.62 174.142 309.836 172.451 310.183C169.07 310.877 165.775 312.004 162.697 313.608C158.709 315.646 154.981 318.333 151.946 321.845C144.966 329.995 141.932 336.888 140.718 342.264C139.548 325.877 139.417 310.487 140.328 296.051C141.325 298.218 143.623 299.042 147.307 297.048C152.596 294.186 157.408 290.241 161.44 285.559C165.515 280.834 168.896 275.372 171.324 269.346C172.538 266.398 173.535 263.32 174.272 260.155C174.662 258.421 174.749 251.355 175.746 250.401C167.075 258.768 158.405 267.135 149.735 275.502C146.484 278.623 143.189 281.874 141.195 286.166C141.152 286.253 141.108 286.34 141.065 286.426C142.452 272.684 144.966 259.852 148.521 247.8C149.735 247.193 150.776 244.765 152.033 244.028C155.327 242.164 155.934 241.297 157.105 240.733C159.489 239.606 158.058 245.199 169.72 244.765C173.925 244.592 176.309 239.52 175.356 236.268C172.711 227.251 156.498 230.806 157.452 237.959C157.712 240.04 152.379 241.991 149.562 244.288C153.463 231.976 158.622 220.531 165.038 209.867V209.91C165.038 209.91 177.523 197.945 180.558 192.916C186.627 182.815 197.161 168.596 194.95 163.047C194.127 161.009 182.812 169.506 174.922 178.047C171.411 181.818 165.948 190.835 164.821 196.254C163.651 202.15 164.041 206.009 164.474 208.089C158.535 217.54 153.593 227.641 149.605 238.349C150.515 232.15 150.559 225.907 150.602 218.841C150.645 207.786 149.778 187.671 141.065 181.601C140.241 181.038 137.423 203.407 137.207 204.925C136.253 211.601 135.082 220.185 136.036 227.034C136.773 232.367 142.279 250.531 145.573 250.618C141.932 263.103 139.461 276.325 138.117 290.285C137.597 284.562 136.686 278.84 135.386 273.204C133.652 265.748 131.311 258.508 128.32 251.615C126.802 248.103 125.155 244.678 123.334 241.427C122.467 239.823 117.915 234.144 117.872 232.583C117.959 245.676 118.089 258.941 120.907 271.86C122.684 280.097 125.719 288.247 130.054 295.053C131.528 297.351 134.042 301.6 136.253 302.77C136.643 302.987 136.947 303.074 137.25 303.117C136.773 313.998 136.903 325.313 137.727 337.018C135.559 332.683 130.617 326.917 131.658 324.966C135.212 318.16 120.473 303.854 114.447 311.44C112.28 314.172 112.54 319.851 116.268 323.666C126.976 334.547 128.883 325.27 131.007 328.088C132.048 329.432 132.351 330.775 135.169 334.981C136.383 336.801 136.513 340.616 137.9 341.744C137.987 341.7 138.03 341.613 138.074 341.57C138.247 343.824 138.42 346.122 138.681 348.42C139.548 357.133 140.978 365.847 142.929 374.474C143.449 376.772 144.013 379.07 144.62 381.367C142.972 377.162 141.152 373.13 139.201 370.399C127.973 354.576 116.702 338.752 105.474 322.929C107.078 325.183 106.948 333.29 107.554 336.281C108.508 340.963 109.679 345.602 111.066 350.154C113.797 359.171 116.745 368.362 121.644 376.295C136.036 399.532 148.738 400.009 150.299 399.965C154.114 410.846 158.622 421.424 163.824 431.612C167.899 439.632 172.364 447.392 177.176 454.935C173.318 450.687 165.818 443.404 151.166 431.655C143.623 425.63 129.794 407.638 121.253 403.997C122.25 416.959 132.568 433.303 140.761 443.1C146.05 449.43 152.77 453.895 159.619 457.797C174.098 465.99 179.604 461.785 180.861 460.485C185.803 467.811 191.005 474.921 196.554 481.727C196.728 481.944 196.901 482.117 197.074 482.334C195.644 482.724 193.953 483.721 192.609 483.678C188.101 483.504 187.017 483.981 185.456 483.808C182.292 483.461 187.104 477.565 173.708 472.363C166.815 469.675 163.911 473.49 163.347 477.218C161.787 487.493 181.165 493.779 183.679 486.322C184.633 483.504 195.861 486.582 198.332 483.851C206.612 493.822 215.455 503.186 224.862 511.77C221.178 510.339 214.892 508.605 204.444 507.348C190.095 505.657 156.194 495.903 155.371 497.55C153.377 501.626 175.356 519.66 209.56 524.906C223.432 527.03 228.07 518.966 229.328 515.758C231.755 517.883 234.226 519.963 236.697 522.001C240.599 525.166 244.587 528.2 248.662 531.105C244.934 530.455 237.694 533.272 236.437 531.192C232.536 524.819 216.582 532.752 220.267 541.769C221.611 545.021 225.036 548.055 230.585 544.847C241.423 538.561 235.83 533.879 238.561 533.186C239.905 532.839 240.989 533.142 244.977 532.449C246.668 532.145 249.529 533.749 250.83 532.969C250.786 532.796 250.743 532.666 250.656 532.492C257.159 537.044 263.878 541.249 270.771 544.978L270.121 544.804C264.529 543.72 260.324 542.81 255.858 544.327C251.35 545.845 247.318 548.532 243.157 550.83C233.663 556.032 223.085 559.024 212.247 559.674C221.698 569.862 235.83 573.286 247.839 570.035C259.457 566.914 269.124 558.33 275.973 547.665C277.274 548.316 278.618 549.009 279.918 549.616C284.123 551.61 288.415 553.388 292.75 554.992C289.065 555.772 284.514 558.46 282.779 557.463C276.71 553.865 266.523 571.335 273.589 577.491C276.147 579.702 281.479 578.705 284.34 572.159C289.195 561.104 283.473 560.801 285.684 558.893C288.068 556.813 290.019 558.113 293.097 557.55C294.571 557.289 295.481 557.116 296.608 556.422C298.169 556.943 299.73 557.463 301.334 557.94C306.146 559.37 353.832 569.992 384.654 575.454C384.871 573.72 385.261 572.029 385.825 570.382C354.829 564.833 295.525 551.827 284.037 546.712Z" fill="white"/>
<path d="M673.026 366.021C671.162 368.795 669.384 372.87 667.824 377.075C668.387 374.778 668.907 372.48 669.341 370.182C671.118 361.555 672.376 352.798 673.069 344.041C673.243 341.743 673.372 339.446 673.503 337.192C673.589 337.235 673.589 337.322 673.676 337.365C675.063 336.194 675.107 332.336 676.277 330.515C678.965 326.267 679.312 324.923 680.265 323.536C682.303 320.674 684.427 329.865 694.918 318.81C698.603 314.909 698.733 309.23 696.522 306.542C690.323 299.042 675.887 313.651 679.615 320.414C680.699 322.365 675.887 328.218 673.806 332.596C674.37 320.891 674.283 309.576 673.589 298.695C673.849 298.652 674.196 298.522 674.586 298.305C676.754 297.091 679.182 292.842 680.612 290.501C684.861 283.608 687.678 275.415 689.282 267.091C691.84 254.086 691.667 240.82 691.537 227.728C691.537 229.288 687.115 235.054 686.248 236.658C684.514 239.996 682.91 243.421 681.479 246.976C678.661 253.956 676.407 261.239 674.847 268.739C673.676 274.375 672.852 280.14 672.462 285.863C670.858 271.947 668.127 258.768 664.225 246.326C667.52 246.196 672.636 227.901 673.286 222.569C674.109 215.719 672.722 207.179 671.682 200.503C671.422 198.985 668.127 176.659 667.347 177.266C658.763 183.552 658.286 203.624 658.59 214.722C658.763 221.789 658.937 228.031 659.977 234.231C655.772 223.609 650.657 213.595 644.501 204.274C644.934 202.194 645.238 198.292 643.937 192.439C642.723 187.02 637.044 178.177 633.49 174.448C625.426 166.081 613.938 157.845 613.158 159.882C611.034 165.431 621.872 179.477 628.114 189.448C631.192 194.39 643.98 206.139 643.98 206.139C643.98 206.139 643.98 206.139 643.98 206.095C650.57 216.63 655.989 227.945 660.15 240.17C657.246 237.916 651.87 236.095 652.13 234.014C652.954 226.861 636.654 223.653 634.183 232.713C633.273 235.965 635.744 241.037 639.992 241.08C651.654 241.297 650.136 235.705 652.521 236.788C653.691 237.309 654.341 238.176 657.636 239.953C658.937 240.647 660.02 243.074 661.234 243.638C665.049 255.603 667.78 268.392 669.471 282.091C669.428 282.005 669.384 281.918 669.341 281.831C667.26 277.583 663.879 274.418 660.584 271.34C651.74 263.146 642.897 254.953 634.096 246.759C635.094 247.713 635.354 254.736 635.787 256.47C636.611 259.635 637.651 262.67 638.908 265.617C641.51 271.6 644.978 277.019 649.139 281.614C653.301 286.21 658.156 290.111 663.532 292.842C667.26 294.75 669.514 293.883 670.511 291.715C671.725 306.108 671.899 321.498 671.075 337.928C669.774 332.553 666.566 325.703 659.457 317.726C656.379 314.258 652.564 311.701 648.576 309.706C645.454 308.189 642.16 307.105 638.735 306.498C637.044 306.195 635.31 306.021 633.576 305.935C632.016 305.891 630.065 305.631 628.504 306.108C628.634 306.802 629.631 307.365 630.108 307.799C630.758 308.362 631.452 308.926 632.102 309.49C633.446 310.573 634.833 311.657 636.177 312.741C638.822 314.909 641.466 317.163 643.634 319.894C647.492 324.706 650.613 330.212 654.341 335.154C656.379 337.885 667.954 348.29 670.208 350.284C668.647 364.59 665.309 379.026 660.497 393.289C659.413 389.171 656.336 383.838 657.766 382.191C662.882 376.165 651.437 361.382 643.72 367.928C640.946 370.269 638.865 374.821 643.287 379.893C651.914 389.691 654.992 382.321 656.336 385.052C656.986 386.396 656.986 387.61 658.59 391.685C659.153 393.072 658.763 395.543 659.11 397.104C653.084 414.011 645.021 430.615 635.44 446.308C640.036 432.653 642.593 410.5 624.169 376.859C624.169 394.633 624.169 412.407 624.126 430.181C624.126 434.083 624.126 438.028 625.296 441.626C626.423 445.181 628.981 448.346 632.362 448.91L633.49 449.473C625.036 462.956 615.499 475.788 605.181 487.579C610.47 476.785 611.12 463.389 610.34 451.511C609.516 439.025 610.08 426.843 602.797 417.826C599.502 437.378 595.471 456.886 592.87 476.525C590.875 491.568 593.173 500.195 593.216 500.412C582.769 510.989 571.714 520.44 560.4 528.46C563.824 524.429 567.553 517.926 568.376 515.845C571.714 507.348 573.232 498.071 573.622 489.227C574.315 474.184 574.619 461.178 567.379 449.69C563.348 472.276 559.316 494.819 555.241 517.406C554.764 519.963 554.894 522.521 554.591 525.122C554.114 529.457 554.591 531.408 555.588 531.755C548.652 536.394 541.672 540.512 534.649 543.98C536.557 540.122 537.077 531.755 539.331 531.322C546.441 529.891 546.05 509.559 536.73 509.689C533.392 509.732 529.36 512.073 529.881 519.356C530.921 533.533 537.25 529.544 536.73 532.709C536.47 534.27 535.776 535.31 534.779 539.819C534.389 541.553 532.352 543.59 532.005 545.238C521.167 550.353 466.891 563.532 434.855 570.078C435.419 571.682 435.852 573.373 436.069 575.15C466.675 568.864 510.069 558.286 514.621 556.856C516.182 556.379 517.742 555.815 519.303 555.252C520.43 555.945 521.384 556.076 522.858 556.336C525.936 556.856 527.843 555.512 530.271 557.55C532.525 559.414 526.803 559.804 531.875 570.772C534.909 577.275 540.241 578.142 542.756 575.887C549.692 569.645 539.158 552.347 533.175 556.076C531.485 557.159 526.846 554.558 523.161 553.821C527.453 552.131 531.701 550.266 535.863 548.185C537.164 547.535 538.464 546.842 539.808 546.148C546.874 556.682 556.715 565.093 568.42 567.954C580.515 570.902 594.604 567.26 603.794 556.856C592.956 556.422 582.335 553.604 572.711 548.619C568.463 546.408 564.388 543.807 559.879 542.376C555.328 540.946 551.166 541.943 545.617 543.157L544.967 543.33C551.773 539.472 558.405 535.137 564.821 530.411C564.778 530.541 564.691 530.715 564.691 530.888C565.992 531.625 568.853 529.978 570.544 530.238C574.532 530.845 575.616 530.541 576.96 530.845C579.734 531.495 574.185 536.264 585.197 542.333C590.832 545.454 594.213 542.29 595.471 539.038C598.982 529.934 582.856 522.348 579.084 528.807C577.87 530.931 570.544 528.244 566.859 528.981C570.847 525.989 574.792 522.868 578.607 519.617C581.078 517.536 583.462 515.411 585.847 513.2C587.191 516.409 591.959 524.385 605.788 521.958C639.905 516.018 661.494 497.507 659.413 493.519C658.59 491.915 624.863 502.319 610.557 504.313C600.109 505.787 593.867 507.651 590.225 509.169C599.459 500.368 608.129 490.831 616.193 480.687C618.75 483.331 629.891 480.08 630.888 482.854C633.533 490.267 652.824 483.591 651.047 473.36C650.396 469.675 647.449 465.903 640.599 468.721C627.29 474.184 632.232 479.993 629.068 480.383C627.55 480.6 626.423 480.123 621.915 480.383C620.571 480.47 618.88 479.516 617.406 479.126C617.58 478.909 617.753 478.692 617.883 478.519C623.259 471.626 628.374 464.43 633.143 456.973C634.4 458.23 639.992 462.349 654.298 453.852C661.061 449.82 667.694 445.225 672.852 438.765C680.829 428.794 690.8 412.234 691.537 399.272C683.083 403.087 669.601 421.338 662.188 427.537C647.752 439.545 640.382 447.002 636.654 451.337C641.293 443.707 645.628 435.861 649.529 427.754C654.515 417.436 658.807 406.771 662.405 395.803C663.965 395.803 676.624 395.066 690.583 371.526C695.351 363.506 698.083 354.272 700.64 345.168C701.941 340.573 703.025 335.891 703.848 331.209C704.368 328.218 704.108 320.111 705.669 317.813C694.875 333.897 683.95 349.937 673.026 366.021Z" fill="white"/>
</g>
<defs>
<clipPath id="clip0_12_2">
<rect width="815" height="776" fill="white"/>
</clipPath>
</defs>
</svg>
